<svg width="25" height="25" viewBox="0 0 25 25" fill="none" xmlns="http://www.w3.org/2000/svg">
<g id="Gift">
<g id="Vector">
<path fill-rule="evenodd" clip-rule="evenodd" d="M17.4197 7.53072C19.2536 7.9451 20.1089 9.67542 20.1639 11.4778C20.167 11.581 20.0859 11.6648 19.9861 11.6648H12.1757C12.1715 11.6647 12.1675 11.6647 12.1633 11.6647C12.1592 11.6647 12.1551 11.6647 12.1509 11.6648H4.34736C4.24762 11.6648 4.16645 11.581 4.1696 11.4778C4.22463 9.67628 5.07896 7.94688 6.91152 7.53136C6.60637 7.09343 6.42533 6.55299 6.42533 5.97021C6.42533 4.52087 7.5451 3.33334 8.90869 3.33334C10.5883 3.33334 11.5906 4.60495 12.1686 5.79244C12.7466 4.60495 13.749 3.33334 15.4195 3.33334C16.7921 3.33334 17.9028 4.52087 17.9028 5.97021C17.9028 6.5527 17.7234 7.09289 17.4197 7.53072ZM7.77989 5.97021C7.77989 6.65281 8.28559 7.20449 8.90869 7.20449H11.2656C10.9405 6.22268 10.2181 4.73593 8.90869 4.73593C8.28559 4.73593 7.77989 5.28762 7.77989 5.97021ZM13.0626 7.20449H15.4195C16.0426 7.20449 16.5483 6.65281 16.5483 5.97021C16.5483 5.28762 16.0426 4.73593 15.4195 4.73593C14.1281 4.73593 13.3967 6.22268 13.0626 7.20449Z" fill="white"/>
<path d="M4.34736 13.0674C4.24762 13.0674 4.16675 13.1511 4.16675 13.2544V17.2471C4.16675 19.6914 5.61341 21.3333 7.76625 21.3333H11.3054C11.4052 21.3333 11.486 21.2496 11.486 21.1463V13.2544C11.486 13.1511 11.4052 13.0674 11.3054 13.0674H4.34736Z" fill="white"/>
<path d="M13.0212 13.0674C12.9215 13.0674 12.8406 13.1511 12.8406 13.2544V21.1463C12.8406 21.2496 12.9215 21.3333 13.0212 21.3333H16.5672C18.7201 21.3333 20.1667 19.6914 20.1667 17.2471V13.2544C20.1667 13.1511 20.0859 13.0674 19.9861 13.0674H13.0212Z" fill="white"/>
</g>
</g>
</svg>
