<svg width="20" height="20" viewBox="0 0 20 20" fill="none" xmlns="http://www.w3.org/2000/svg">
<g id="Icon/Social/Facebook">
<path id="Vector" d="M9.99984 2C5.58169 2 2 5.59492 2 10.0294C2 13.7948 4.58299 16.9546 8.0674 17.8224V12.4832H6.41783V10.0294H8.0674V8.97208C8.0674 6.2392 9.29969 4.97248 11.9729 4.97248C12.4798 4.97248 13.3543 5.07236 13.7121 5.17193V7.39607C13.5233 7.37616 13.1953 7.3662 12.7879 7.3662C11.4763 7.3662 10.9694 7.86499 10.9694 9.16157V10.0294H13.5825L13.1335 12.4832H10.9694V18C14.9306 17.5198 18 14.1347 18 10.0294C17.9997 5.59492 14.418 2 9.99984 2Z" fill="white"/>
</g>
</svg>
