<svg width="20" height="20" viewBox="0 0 20 20" fill="none" xmlns="http://www.w3.org/2000/svg">
<g id="Icon/Social/Github">
<path id="Vector" d="M10.0201 2.00006C8.11737 1.99269 6.27459 2.6823 4.82325 3.94482C3.3719 5.20733 2.40727 6.95986 2.10291 8.8871C1.79854 10.8143 2.17443 12.7898 3.16293 14.458C4.15144 16.1262 5.68767 17.3777 7.49524 17.9873C7.89474 18.0529 8.02258 17.7987 8.02258 17.5774V16.1918C5.80938 16.6837 5.33797 15.1178 5.33797 15.1178C5.18876 14.6086 4.86529 14.1719 4.42712 13.888C3.70004 13.3797 4.48305 13.3961 4.48305 13.3961C4.73386 13.4294 4.97408 13.5204 5.18577 13.6624C5.39745 13.8044 5.57513 13.9936 5.70551 14.216C5.92745 14.6209 6.29622 14.9196 6.73162 15.047C7.16701 15.1744 7.63384 15.1203 8.03057 14.8964C8.06697 14.4808 8.24524 14.0917 8.53393 13.7978C6.82409 13.6175 4.9225 12.9124 4.9225 9.78872C4.89939 8.97005 5.18568 8.17393 5.72149 7.5669C5.47822 6.86136 5.5068 6.08711 5.80139 5.40247C5.80139 5.40247 6.47254 5.18111 7.99861 6.22233C9.30703 5.86141 10.6851 5.86141 11.9936 6.22233C13.5196 5.16471 14.1908 5.40247 14.1908 5.40247C14.4854 6.08711 14.5139 6.86136 14.2707 7.5669C14.8065 8.17393 15.0928 8.97005 15.0697 9.78872C15.0697 12.9206 13.2 13.6093 11.4183 13.8142C11.6102 14.0121 11.7586 14.2499 11.8537 14.5114C11.9488 14.773 11.9883 15.0524 11.9696 15.331V17.5774C11.9696 17.7987 12.0974 18.0611 12.5049 17.9873C14.3092 17.3788 15.8432 16.1307 16.8319 14.4667C17.8206 12.8028 18.1994 10.8319 17.9003 8.90739C17.6011 6.98288 16.6437 5.23064 15.1996 3.96484C13.7556 2.69905 11.9193 2.00249 10.0201 2.00006Z" fill="white"/>
</g>
</svg>
