<svg width="20" height="20" viewBox="0 0 20 20" fill="none" xmlns="http://www.w3.org/2000/svg">
<g id="Icon/Social/Instagram">
<path id="Vector" d="M10 18C8.28461 18 7.05018 17.9992 6.08776 17.9058C5.13636 17.8136 4.52776 17.6364 4.04206 17.3312C3.48694 16.9824 3.01754 16.513 2.66873 15.9579C2.36364 15.4722 2.1863 14.8636 2.09418 13.9122C2.00085 12.9498 2 11.7154 2 10C2 8.28461 2.00085 7.05018 2.09418 6.08776C2.1863 5.13636 2.36364 4.52776 2.66873 4.04206C3.01752 3.48693 3.48693 3.01752 4.04206 2.66873C4.52776 2.36364 5.13636 2.1863 6.08776 2.09418C7.05006 2.00085 8.28449 2 10 2C11.7154 2 12.9498 2.00085 13.9122 2.09418C14.8636 2.1863 15.4722 2.36364 15.9579 2.66873C16.513 3.01754 16.9824 3.48694 17.3312 4.04206C17.6364 4.52776 17.8136 5.13636 17.9058 6.08776C17.9992 7.05018 18 8.28461 18 10C18 11.7154 17.9992 12.9498 17.9058 13.9122C17.8136 14.8636 17.6364 15.4722 17.3312 15.9579C16.9824 16.513 16.513 16.9824 15.9579 17.3312C15.4722 17.6364 14.8636 17.8136 13.9122 17.9058C12.9498 17.9992 11.7154 18 10 18Z" stroke="white" stroke-width="1.38462"/>
<path id="Vector_2" d="M10.0001 13.4615C11.9119 13.4615 13.4617 11.9117 13.4617 9.99999C13.4617 8.08824 11.9119 6.53845 10.0001 6.53845C8.08836 6.53845 6.53857 8.08824 6.53857 9.99999C6.53857 11.9117 8.08836 13.4615 10.0001 13.4615Z" stroke="white" stroke-width="1.38462"/>
<path id="Vector_3" d="M14.4999 6.53847C15.0734 6.53847 15.5383 6.07354 15.5383 5.50001C15.5383 4.92648 15.0734 4.46155 14.4999 4.46155C13.9264 4.46155 13.4614 4.92648 13.4614 5.50001C13.4614 6.07354 13.9264 6.53847 14.4999 6.53847Z" fill="white"/>
</g>
</svg>
