<svg width="20" height="20" viewBox="0 0 20 20" fill="none" xmlns="http://www.w3.org/2000/svg">
<g id="Icon/Social/Medium">
<path id="Vector" d="M18 9.55209C18 11.6716 17.6448 13.3909 17.2065 13.3909C16.7682 13.3909 16.4131 11.6721 16.4131 9.55209C16.4131 7.43208 16.7683 5.71326 17.2065 5.71326C17.6446 5.71326 18 7.43193 18 9.55209Z" fill="white"/>
<path id="Vector_2" d="M15.9754 9.55189C15.9754 11.9181 14.9653 13.8371 13.7192 13.8371C12.4731 13.8371 11.4629 11.9181 11.4629 9.55189C11.4629 7.18568 12.4729 5.26672 13.719 5.26672C14.9651 5.26672 15.9753 7.18506 15.9753 9.55189" fill="white"/>
<path id="Vector_3" d="M11.0249 9.5518C11.0249 12.0656 9.00462 14.1034 6.51255 14.1034C4.02048 14.1034 2 12.0651 2 9.5518C2 7.03845 4.02033 5 6.51255 5C9.00477 5 11.0249 7.03799 11.0249 9.5518Z" fill="white"/>
</g>
</svg>
