<svg width="20" height="20" viewBox="0 0 20 20" fill="none" xmlns="http://www.w3.org/2000/svg">
<g id="Icon/Social/Reddit">
<path id="Vector" d="M12.0342 5.04977C12.2075 5.78485 12.8674 6.33244 13.6552 6.33244C14.5751 6.33244 15.3208 5.58643 15.3208 4.66622C15.3208 3.74601 14.5751 3 13.6552 3C12.851 3 12.1802 3.57025 12.024 4.32876C10.677 4.47327 9.62518 5.61611 9.62518 7.00112C9.62518 7.00424 9.62518 7.00658 9.62518 7.00971C8.16027 7.07142 6.82265 7.48856 5.76066 8.14708C5.36632 7.84165 4.87125 7.65964 4.33402 7.65964C3.0448 7.65964 2 8.70483 2 9.99453C2 10.9304 2.54973 11.7365 3.34388 12.1091C3.42118 14.8198 6.37365 17 10.0055 17C13.6373 17 16.5937 14.8174 16.6671 12.1045C17.455 11.7295 18 10.9257 18 9.99531C18 8.70561 16.9552 7.66042 15.666 7.66042C15.1311 7.66042 14.6384 7.84087 14.2448 8.14396C13.1735 7.48075 11.821 7.06361 10.3412 7.00815C10.3412 7.0058 10.3412 7.00424 10.3412 7.0019C10.3412 6.00982 11.0784 5.18648 12.0342 5.05133V5.04977ZM5.66696 11.4764C5.706 10.6296 6.26823 9.97969 6.92182 9.97969C7.5754 9.97969 8.07516 10.6663 8.03612 11.5131C7.99707 12.3599 7.50903 12.6677 6.85466 12.6677C6.20029 12.6677 5.62792 12.3232 5.66696 11.4764ZM13.0899 9.97969C13.7443 9.97969 14.3065 10.6296 14.3448 11.4764C14.3838 12.3232 13.8106 12.6677 13.1571 12.6677C12.5035 12.6677 12.0146 12.3607 11.9756 11.5131C11.9366 10.6663 12.4355 9.97969 13.0899 9.97969ZM12.3122 13.4356C12.4347 13.4481 12.5128 13.5754 12.4652 13.6894C12.0631 14.651 11.1135 15.3267 10.0055 15.3267C8.89741 15.3267 7.94866 14.651 7.54573 13.6894C7.4981 13.5754 7.57618 13.4481 7.69878 13.4356C8.41718 13.3629 9.19414 13.3231 10.0055 13.3231C10.8168 13.3231 11.593 13.3629 12.3122 13.4356Z" fill="white"/>
</g>
</svg>
