<svg width="20" height="20" viewBox="0 0 20 20" fill="none" xmlns="http://www.w3.org/2000/svg">
<g id="Icon/Social/Web">
<path id="Vector" d="M10 2C8.41775 2 6.87103 2.46919 5.55544 3.34824C4.23985 4.22729 3.21447 5.47672 2.60897 6.93853C2.00347 8.40034 1.84504 10.0089 2.15372 11.5607C2.4624 13.1126 3.22433 14.538 4.34315 15.6569C5.46197 16.7757 6.88743 17.5376 8.43928 17.8463C9.99113 18.155 11.5997 17.9965 13.0615 17.391C14.5233 16.7855 15.7727 15.7602 16.6518 14.4446C17.5308 13.129 18 11.5822 18 10C17.9978 7.87896 17.1542 5.84543 15.6544 4.34562C14.1546 2.84581 12.121 2.00224 10 2ZM7.97154 13.0769H12.0285C11.6154 14.4877 10.9231 15.7592 10 16.7608C9.07692 15.7592 8.38462 14.4877 7.97154 13.0769ZM7.69231 11.8462C7.48821 10.6238 7.48821 9.37615 7.69231 8.15385H12.3077C12.5118 9.37615 12.5118 10.6238 12.3077 11.8462H7.69231ZM3.23077 10C3.23024 9.37572 3.31645 8.7544 3.48693 8.15385H6.44539C6.2618 9.37777 6.2618 10.6222 6.44539 11.8462H3.48693C3.31645 11.2456 3.23024 10.6243 3.23077 10ZM12.0285 6.92308H7.97154C8.38462 5.51231 9.07692 4.24077 10 3.23923C10.9231 4.24077 11.6154 5.51231 12.0285 6.92308ZM13.5546 8.15385H16.5131C16.8546 9.36092 16.8546 10.6391 16.5131 11.8462H13.5546C13.7382 10.6222 13.7382 9.37777 13.5546 8.15385ZM16.0285 6.92308H13.3031C12.989 5.68732 12.4616 4.51588 11.7446 3.46154C12.6607 3.70771 13.515 4.14286 14.2528 4.73902C14.9906 5.33518 15.5954 6.07915 16.0285 6.92308ZM8.25539 3.46154C7.53838 4.51588 7.01097 5.68732 6.69693 6.92308H3.97154C4.40456 6.07915 5.00941 5.33518 5.74719 4.73902C6.48497 4.14286 7.33935 3.70771 8.25539 3.46154ZM3.97154 13.0769H6.69693C7.01097 14.3127 7.53838 15.4841 8.25539 16.5385C7.33935 16.2923 6.48497 15.8571 5.74719 15.261C5.00941 14.6648 4.40456 13.9209 3.97154 13.0769ZM11.7446 16.5385C12.4616 15.4841 12.989 14.3127 13.3031 13.0769H16.0285C15.5954 13.9209 14.9906 14.6648 14.2528 15.261C13.515 15.8571 12.6607 16.2923 11.7446 16.5385Z" fill="white"/>
</g>
</svg>
