<svg width="20" height="20" viewBox="0 0 20 20" fill="none" xmlns="http://www.w3.org/2000/svg">
<g id="Icon/Social/Telegram">
<path id="Vector" fill-rule="evenodd" clip-rule="evenodd" d="M3.09992 9.02691C7.39488 7.05119 10.2589 5.74867 11.6919 5.11936C15.7834 3.32254 16.6335 3.01042 17.1877 3.00011C17.3095 2.99784 17.5821 3.02973 17.7586 3.18096C17.9076 3.30866 17.9486 3.48116 17.9683 3.60223C17.9879 3.7233 18.0123 3.9991 17.9929 4.2146C17.7712 6.6743 16.8118 12.6433 16.3237 15.3983C16.1172 16.564 15.7105 16.9548 15.3169 16.9931C14.4613 17.0762 13.8116 16.3961 12.9829 15.8225C11.6862 14.9251 10.9537 14.3664 9.69503 13.4907C8.24043 12.4786 9.18338 11.9223 10.0124 11.0132C10.2293 10.7753 13.999 7.15509 14.0719 6.82668C14.0811 6.7856 14.0895 6.6325 14.0034 6.55166C13.9172 6.47081 13.7901 6.49846 13.6983 6.52045C13.5683 6.55161 11.4968 7.99723 7.48389 10.8573C6.89591 11.2836 6.36333 11.4913 5.88616 11.4804C5.36012 11.4684 4.34822 11.1664 3.59598 10.9082C2.67333 10.5915 1.94002 10.4241 2.00388 9.88633C2.03714 9.60621 2.40248 9.31974 3.09992 9.02691Z" fill="white"/>
</g>
</svg>
