<svg xmlns="http://www.w3.org/2000/svg" width="16" height="16" viewBox="0 0 16 16" fill="none">
    <path d="M4.54743 12.3333V11.5769H9.65C10.4021 11.5769 11.0449 11.3207 11.5782 10.8083C12.1115 10.2959 12.3782 9.66493 12.3782 8.91537C12.3782 8.17007 12.1115 7.54229 11.5782 7.03203C11.0449 6.52178 10.4021 6.26665 9.65 6.26665H4.44485L6.42177 8.24358L5.88845 8.7769L3 5.88845L5.88845 3L6.42177 3.53333L4.44485 5.51025H9.63333C10.5949 5.51025 11.4188 5.83909 12.1051 6.49678C12.7914 7.15447 13.1346 7.96067 13.1346 8.91537C13.1346 9.87006 12.7914 10.6784 12.1051 11.3404C11.4188 12.0023 10.5949 12.3333 9.63333 12.3333H4.54743Z" fill="white"/>
</svg>