<svg width="24" height="24" viewBox="0 0 24 24" fill="none" xmlns="http://www.w3.org/2000/svg">
<path d="M3.2998 21.9751C2.8998 21.9751 2.5498 21.8251 2.2498 21.5251C1.9498 21.2251 1.7998 20.8751 1.7998 20.4751V5.4001H3.2998V20.4751H15.1498V21.9751H3.2998ZM6.2998 18.9751C5.8998 18.9751 5.5498 18.8251 5.2498 18.5251C4.9498 18.2251 4.7998 17.8751 4.7998 17.4751V3.4751C4.7998 3.0751 4.9498 2.7251 5.2498 2.4251C5.5498 2.1251 5.8998 1.9751 6.2998 1.9751H17.2998C17.6998 1.9751 18.0498 2.1251 18.3498 2.4251C18.6498 2.7251 18.7998 3.0751 18.7998 3.4751V17.4751C18.7998 17.8751 18.6498 18.2251 18.3498 18.5251C18.0498 18.8251 17.6998 18.9751 17.2998 18.9751H6.2998ZM6.2998 17.4751H17.2998V3.4751H6.2998V17.4751Z" fill="white"/>
</svg>
