<svg width="24" height="24" viewBox="0 0 24 24" fill="none" xmlns="http://www.w3.org/2000/svg">
<path d="M5.03849 21C4.64634 21 4.30792 20.8576 4.02324 20.5729C3.73854 20.2882 3.59619 19.9498 3.59619 19.5577V4.94232C3.59619 4.55017 3.73854 4.21175 4.02324 3.92705C4.30792 3.64235 4.64634 3.5 5.03849 3.5H11.9481V4.6346H5.03849C4.96156 4.6346 4.89104 4.66665 4.82694 4.73075C4.76282 4.79487 4.73077 4.86539 4.73077 4.94232V19.5577C4.73077 19.6346 4.76282 19.7051 4.82694 19.7692C4.89104 19.8333 4.96156 19.8654 5.03849 19.8654H11.9481V21H5.03849ZM16.6115 16.0577L15.7865 15.2519L18.2211 12.8173H9.39422V11.6827H18.1904L15.7558 9.2481L16.5711 8.43272L20.4038 12.2702L16.6115 16.0577Z" fill="white"/>
</svg>
