<svg width="16" height="16" viewBox="0 0 16 16" fill="none" xmlns="http://www.w3.org/2000/svg">
<g id="Icon-CaretRight">
<path id="Vector" d="M11.3538 8.35372L6.35378 13.3537C6.30733 13.4002 6.25218 13.437 6.19148 13.4622C6.13079 13.4873 6.06573 13.5003 6.00003 13.5003C5.93434 13.5003 5.86928 13.4873 5.80859 13.4622C5.74789 13.437 5.69274 13.4002 5.64628 13.3537C5.59983 13.3073 5.56298 13.2521 5.53784 13.1914C5.5127 13.1307 5.49976 13.0657 5.49976 13C5.49976 12.9343 5.5127 12.8692 5.53784 12.8085C5.56298 12.7478 5.59983 12.6927 5.64628 12.6462L10.2932 7.99997L5.64628 3.35372C5.55246 3.2599 5.49976 3.13265 5.49976 2.99997C5.49976 2.86729 5.55246 2.74004 5.64628 2.64622C5.7401 2.5524 5.86735 2.49969 6.00003 2.49969C6.13272 2.49969 6.25996 2.5524 6.35378 2.64622L11.3538 7.64622C11.4003 7.69266 11.4372 7.7478 11.4623 7.8085C11.4875 7.8692 11.5004 7.93427 11.5004 7.99997C11.5004 8.06568 11.4875 8.13074 11.4623 8.19144C11.4372 8.25214 11.4003 8.30729 11.3538 8.35372Z" fill="#EA7A3B"/>
</g>
</svg>
