<svg width="16" height="16" viewBox="0 0 16 16" fill="none" xmlns="http://www.w3.org/2000/svg">
<g id="Frame">
<path id="Vector" d="M6.36664 10.1L12.0166 4.45C12.15 4.31667 12.3055 4.25 12.4833 4.25C12.6611 4.25 12.8166 4.31667 12.95 4.45C13.0833 4.58333 13.15 4.74167 13.15 4.925C13.15 5.10833 13.0833 5.26667 12.95 5.4L6.83331 11.5333C6.69998 11.6667 6.54442 11.7333 6.36664 11.7333C6.18886 11.7333 6.03331 11.6667 5.89998 11.5333L3.03331 8.66667C2.89998 8.53333 2.83609 8.375 2.84164 8.19167C2.8472 8.00833 2.91664 7.85 3.04998 7.71667C3.18331 7.58333 3.34164 7.51667 3.52498 7.51667C3.70831 7.51667 3.86664 7.58333 3.99998 7.71667L6.36664 10.1Z" fill="#E8EAED"/>
</g>
</svg>
