<svg width="24" height="24" viewBox="0 0 24 24" fill="none" xmlns="http://www.w3.org/2000/svg">
<g id="Icon-GitCommit">
<path id="Vector" d="M23.25 11.25H17.1956C17.0145 10.0012 16.3897 8.85951 15.4355 8.0338C14.4814 7.20809 13.2618 6.75363 12 6.75363C10.7382 6.75363 9.51859 7.20809 8.56446 8.0338C7.61033 8.85951 6.98551 10.0012 6.80438 11.25H0.75C0.551088 11.25 0.360322 11.329 0.21967 11.4697C0.0790176 11.6103 0 11.8011 0 12C0 12.1989 0.0790176 12.3897 0.21967 12.5303C0.360322 12.671 0.551088 12.75 0.75 12.75H6.80438C6.98551 13.9987 7.61033 15.1405 8.56446 15.9662C9.51859 16.7919 10.7382 17.2463 12 17.2463C13.2618 17.2463 14.4814 16.7919 15.4355 15.9662C16.3897 15.1405 17.0145 13.9987 17.1956 12.75H23.25C23.4489 12.75 23.6397 12.671 23.7803 12.5303C23.921 12.3897 24 12.1989 24 12C24 11.8011 23.921 11.6103 23.7803 11.4697C23.6397 11.329 23.4489 11.25 23.25 11.25ZM12 15.75C11.2583 15.75 10.5333 15.5301 9.91661 15.118C9.29993 14.7059 8.81928 14.1203 8.53545 13.4351C8.25162 12.7498 8.17736 11.9958 8.32205 11.2684C8.46675 10.541 8.8239 9.87278 9.34835 9.34834C9.8728 8.82389 10.541 8.46674 11.2684 8.32204C11.9958 8.17735 12.7498 8.25161 13.4351 8.53544C14.1203 8.81927 14.706 9.29991 15.118 9.9166C15.5301 10.5333 15.75 11.2583 15.75 12C15.75 12.9945 15.3549 13.9484 14.6517 14.6516C13.9484 15.3549 12.9946 15.75 12 15.75Z" fill="white"/>
</g>
</svg>
