<svg width="25" height="24" viewBox="0 0 25 24" fill="none" xmlns="http://www.w3.org/2000/svg">
<g id="Icon-Database">
<path id="Vector" d="M12.6667 2.25C7.62012 2.25 3.66669 4.55625 3.66669 7.5V16.5C3.66669 19.4438 7.62012 21.75 12.6667 21.75C17.7132 21.75 21.6667 19.4438 21.6667 16.5V7.5C21.6667 4.55625 17.7132 2.25 12.6667 2.25ZM20.1667 12C20.1667 12.9019 19.4279 13.8216 18.1407 14.5238C16.6914 15.3141 14.747 15.75 12.6667 15.75C10.5864 15.75 8.642 15.3141 7.19262 14.5238C5.90544 13.8216 5.16669 12.9019 5.16669 12V10.44C6.76606 11.8463 9.50075 12.75 12.6667 12.75C15.8326 12.75 18.5673 11.8425 20.1667 10.44V12ZM18.1407 19.0238C16.6914 19.8141 14.747 20.25 12.6667 20.25C10.5864 20.25 8.642 19.8141 7.19262 19.0238C5.90544 18.3216 5.16669 17.4019 5.16669 16.5V14.94C6.76606 16.3463 9.50075 17.25 12.6667 17.25C15.8326 17.25 18.5673 16.3425 20.1667 14.94V16.5C20.1667 17.4019 19.4279 18.3216 18.1407 19.0238Z" fill="white"/>
</g>
</svg>
