<svg width="25" height="24" viewBox="0 0 25 24" fill="none" xmlns="http://www.w3.org/2000/svg">
<g id="Icon-Database">
<path id="Vector" d="M12.3333 2.25C7.28669 2.25 3.33325 4.55625 3.33325 7.5V16.5C3.33325 19.4438 7.28669 21.75 12.3333 21.75C17.3798 21.75 21.3333 19.4438 21.3333 16.5V7.5C21.3333 4.55625 17.3798 2.25 12.3333 2.25ZM19.8333 12C19.8333 12.9019 19.0945 13.8216 17.8073 14.5238C16.3579 15.3141 14.4136 15.75 12.3333 15.75C10.2529 15.75 8.30856 15.3141 6.85919 14.5238C5.572 13.8216 4.83325 12.9019 4.83325 12V10.44C6.43263 11.8463 9.16731 12.75 12.3333 12.75C15.4992 12.75 18.2339 11.8425 19.8333 10.44V12ZM6.85919 4.97625C8.30856 4.18594 10.2529 3.75 12.3333 3.75C14.4136 3.75 16.3579 4.18594 17.8073 4.97625C19.0945 5.67844 19.8333 6.59812 19.8333 7.5C19.8333 8.40188 19.0945 9.32156 17.8073 10.0237C16.3579 10.8141 14.4136 11.25 12.3333 11.25C10.2529 11.25 8.30856 10.8141 6.85919 10.0237C5.572 9.32156 4.83325 8.40188 4.83325 7.5C4.83325 6.59812 5.572 5.67844 6.85919 4.97625ZM17.8073 19.0238C16.3579 19.8141 14.4136 20.25 12.3333 20.25C10.2529 20.25 8.30856 19.8141 6.85919 19.0238C5.572 18.3216 4.83325 17.4019 4.83325 16.5V14.94C6.43263 16.3463 9.16731 17.25 12.3333 17.25C15.4992 17.25 18.2339 16.3425 19.8333 14.94V16.5C19.8333 17.4019 19.0945 18.3216 17.8073 19.0238Z" fill="white"/>
</g>
</svg>
