<svg width="24" height="24" viewBox="0 0 24 24" fill="none" xmlns="http://www.w3.org/2000/svg">
<g id="fire 1">
<path id="Vector" fill-rule="evenodd" clip-rule="evenodd" d="M12.3237 18.0106C11.5547 17.1331 11.3307 15.9187 11.2957 14.9366C10.7457 15.4003 10.2337 15.911 10.0317 16.3152C10.0287 16.321 10.0257 16.3267 10.0227 16.3325C9.51872 17.2714 9.49572 18.409 9.96272 19.2998C10.2297 19.8125 10.7747 20.4595 11.8457 20.6304C13.1797 20.8973 14.3507 20.1312 14.8397 19.2374C15.2557 18.4752 15.2077 17.6698 14.7257 16.9469C13.9897 17.8358 13.5567 18.2995 12.9977 18.3072C12.7287 18.2928 12.4697 18.1766 12.3237 18.0106Z" fill="#FF56B1"/>
<path id="Vector_2" fill-rule="evenodd" clip-rule="evenodd" d="M19.0073 9.62222C17.8063 7.22222 15.7143 5.25902 12.7903 3.78926C12.6243 3.70574 12.4263 3.71822 12.2723 3.82094C12.1183 3.9227 12.0383 4.09934 12.0623 4.27694C12.3603 6.46286 11.9453 9.51278 10.7383 10.8319C10.4733 11.1227 10.1863 11.3157 9.86928 11.4136C9.86128 10.1474 9.44428 8.92814 8.62528 7.78286C8.55028 7.67726 8.43328 7.6043 8.30128 7.58222C8.16928 7.55918 8.03228 7.58798 7.92328 7.66286C7.53328 7.92974 6.68228 8.69678 6.43328 8.93486C3.78928 11.3512 3.17428 14.8859 4.86428 17.9407C6.18728 20.3311 8.53928 21.7576 11.1813 21.9381C10.0733 21.6539 9.15828 20.9723 8.62128 19.9461C7.94528 18.6539 7.97028 17.021 8.68528 15.6818C9.35028 14.3666 11.4803 12.9535 11.7213 12.796C11.9693 12.6328 12.2963 12.6299 12.5503 12.7883C12.8033 12.9458 12.9333 13.2347 12.8803 13.5199C12.7773 14.0738 12.6653 15.5186 13.1313 16.5429C13.3173 16.3365 13.5193 16.0907 13.6563 15.9237C13.8493 15.6904 14.0263 15.4773 14.1593 15.3362C14.2943 15.1931 14.4853 15.1087 14.6863 15.101C14.8853 15.0952 15.0833 15.1643 15.2303 15.2978C16.6533 16.5909 17.0133 18.3563 16.1673 19.9058C15.7773 20.621 15.1903 21.1883 14.5043 21.5723C16.5353 21.0021 18.1593 19.7051 19.1363 17.8427C20.4393 15.3563 20.3873 12.2018 19.0073 9.62222Z" fill="#FF56B1"/>
</g>
</svg>
