<svg width="24" height="24" viewBox="0 0 24 24" fill="none" xmlns="http://www.w3.org/2000/svg">
<g id="Icon-Pulse">
<path id="Vector" d="M22.5 12C22.5 12.1989 22.421 12.3897 22.2803 12.5303C22.1397 12.671 21.9489 12.75 21.75 12.75H19.2131L15.6713 19.8356C15.6089 19.9602 15.5131 20.065 15.3945 20.1382C15.2759 20.2114 15.1393 20.2501 15 20.25H14.9625C14.817 20.2428 14.6768 20.1934 14.5589 20.1079C14.441 20.0223 14.3506 19.9042 14.2987 19.7681L8.93906 5.69626L5.9325 12.3103C5.87294 12.4414 5.77691 12.5525 5.65589 12.6305C5.53487 12.7085 5.39396 12.75 5.25 12.75H2.25C2.05109 12.75 1.86032 12.671 1.71967 12.5303C1.57902 12.3897 1.5 12.1989 1.5 12C1.5 11.8011 1.57902 11.6103 1.71967 11.4697C1.86032 11.329 2.05109 11.25 2.25 11.25H4.76719L8.3175 3.4397C8.37871 3.30492 8.47843 3.19127 8.6041 3.11306C8.72978 3.03484 8.87579 2.99557 9.02375 3.00018C9.1717 3.00479 9.31498 3.05308 9.43554 3.13897C9.5561 3.22486 9.64855 3.3445 9.70125 3.48283L15.0928 17.6391L18.0788 11.6663C18.1408 11.5413 18.2366 11.4362 18.3551 11.3626C18.4737 11.2891 18.6105 11.2501 18.75 11.25H21.75C21.9489 11.25 22.1397 11.329 22.2803 11.4697C22.421 11.6103 22.5 11.8011 22.5 12Z" fill="white"/>
</g>
</svg>
