<svg xmlns="http://www.w3.org/2000/svg" width="20" height="20" viewBox="0 0 20 20" fill="none">
    <path d="M19.05 5.95235C18.909 5.82942 18.7347 5.75116 18.5491 5.72751C18.3635 5.70387 18.1751 5.7359 18.0078 5.81954L14.0852 7.77266L10.8102 2.33282C10.726 2.19323 10.6071 2.07776 10.4652 1.99761C10.3233 1.91745 10.163 1.87534 10 1.87534C9.83699 1.87534 9.67674 1.91745 9.5348 1.99761C9.39285 2.07776 9.27403 2.19323 9.18984 2.33282L5.91484 7.77501L1.99375 5.82188C1.82683 5.73898 1.63914 5.70723 1.45424 5.73061C1.26934 5.75399 1.09546 5.83146 0.954429 5.9533C0.813396 6.07514 0.711491 6.23592 0.6615 6.41546C0.61151 6.59501 0.615662 6.78531 0.673434 6.96251L3.56406 15.8188C3.59312 15.9077 3.6418 15.989 3.70649 16.0567C3.77119 16.1243 3.85025 16.1766 3.93784 16.2096C4.02542 16.2426 4.11931 16.2555 4.21255 16.2473C4.30579 16.2392 4.39602 16.2102 4.47656 16.1625C4.49609 16.1508 6.49375 15 10 15C13.5062 15 15.5039 16.1508 15.5219 16.1617C15.6024 16.2099 15.6928 16.2392 15.7863 16.2477C15.8798 16.2561 15.974 16.2434 16.0618 16.2104C16.1497 16.1775 16.2291 16.1252 16.294 16.0574C16.3589 15.9896 16.4076 15.908 16.4367 15.8188L19.3273 6.96485C19.3868 6.78761 19.3921 6.59669 19.3427 6.41639C19.2934 6.2361 19.1915 6.07456 19.05 5.95235ZM13.7375 12.25C13.712 12.3946 13.6364 12.5256 13.524 12.62C13.4115 12.7144 13.2695 12.7663 13.1227 12.7664C13.086 12.7664 13.0494 12.7632 13.0133 12.757C11.0169 12.4143 8.9768 12.4143 6.98047 12.757C6.89962 12.7713 6.81676 12.7695 6.73661 12.7517C6.65646 12.734 6.5806 12.7006 6.51335 12.6535C6.37753 12.5584 6.28505 12.4133 6.25625 12.25C6.22745 12.0867 6.26469 11.9187 6.35977 11.7829C6.45486 11.6471 6.6 11.5546 6.76328 11.5258C8.90333 11.1581 11.0904 11.1581 13.2305 11.5258C13.3116 11.5397 13.3892 11.5694 13.4588 11.6134C13.5284 11.6573 13.5886 11.7146 13.636 11.7819C13.6834 11.8492 13.7171 11.9252 13.735 12.0055C13.753 12.0859 13.7549 12.1689 13.7406 12.25H13.7375Z" fill="white"/>
</svg>