<svg xmlns="http://www.w3.org/2000/svg" width="20" height="20" viewBox="0 0 20 20" fill="none">
    <path d="M19.05 5.95232C18.909 5.82939 18.7347 5.75113 18.5491 5.72748C18.3635 5.70384 18.1751 5.73587 18.0078 5.81951L14.0852 7.77263L10.8102 2.33279C10.726 2.1932 10.6071 2.07773 10.4652 1.99758C10.3233 1.91742 10.163 1.87531 10 1.87531C9.83699 1.87531 9.67674 1.91742 9.5348 1.99758C9.39285 2.07773 9.27403 2.1932 9.18984 2.33279L5.91484 7.77498L1.99375 5.82185C1.82683 5.73895 1.63914 5.7072 1.45424 5.73058C1.26934 5.75396 1.09546 5.83143 0.954429 5.95327C0.813396 6.07511 0.711491 6.23589 0.6615 6.41543C0.61151 6.59497 0.615662 6.78528 0.673434 6.96248L3.56406 15.8187C3.59312 15.9077 3.6418 15.989 3.70649 16.0566C3.77119 16.1243 3.85025 16.1765 3.93784 16.2095C4.02542 16.2425 4.11931 16.2554 4.21255 16.2473C4.30579 16.2391 4.39602 16.2102 4.47656 16.1625C4.49609 16.1508 6.49375 15 10 15C13.5062 15 15.5039 16.1508 15.5219 16.1617C15.6024 16.2098 15.6928 16.2392 15.7863 16.2476C15.8798 16.2561 15.974 16.2433 16.0618 16.2104C16.1497 16.1774 16.2291 16.1251 16.294 16.0573C16.3589 15.9895 16.4076 15.908 16.4367 15.8187L19.3273 6.96482C19.3868 6.78758 19.3921 6.59666 19.3427 6.41636C19.2934 6.23606 19.1915 6.07453 19.05 5.95232ZM15.4687 14.7523C14.5312 14.3547 12.6625 13.75 10 13.75C7.3375 13.75 5.46875 14.3547 4.53125 14.7523L2.08672 7.2656L5.60781 9.02107C5.82094 9.12617 6.0657 9.14766 6.29388 9.08128C6.52206 9.01491 6.71712 8.8655 6.84062 8.66248L10 3.41091L13.1594 8.66091C13.283 8.86361 13.4779 9.01277 13.7059 9.07912C13.9338 9.14546 14.1783 9.1242 14.3914 9.01951L17.9133 7.2656L15.4687 14.7523ZM13.7398 12.2523C13.7143 12.3969 13.6387 12.5279 13.5263 12.6223C13.4139 12.7167 13.2718 12.7686 13.125 12.7687C13.0883 12.7687 13.0518 12.7655 13.0156 12.7594C11.0193 12.4166 8.97915 12.4166 6.98281 12.7594C6.81954 12.7882 6.65151 12.7509 6.51569 12.6558C6.37987 12.5607 6.28739 12.4156 6.25859 12.2523C6.22979 12.089 6.26703 11.921 6.36212 11.7852C6.4572 11.6494 6.60235 11.5569 6.76562 11.5281C8.90567 11.1604 11.0928 11.1604 13.2328 11.5281C13.3958 11.5567 13.5407 11.6488 13.6359 11.7841C13.7311 11.9194 13.7688 12.0869 13.7406 12.25L13.7398 12.2523Z" fill="white"/>
</svg>