<svg width="20" height="20" viewBox="0 0 20 20" fill="none" xmlns="http://www.w3.org/2000/svg">
<path d="M15.4422 14.5578C15.5003 14.6159 15.5464 14.6848 15.5779 14.7607C15.6093 14.8365 15.6255 14.9179 15.6255 15C15.6255 15.0821 15.6093 15.1635 15.5779 15.2393C15.5464 15.3152 15.5003 15.3841 15.4422 15.4422C15.3578 15.5258 13.3453 17.5 10 17.5C8.175 17.5 6.39609 16.7891 4.82188 15.4367L3.56719 16.6922C3.47978 16.7797 3.36837 16.8393 3.24707 16.8635C3.12576 16.8876 3.00002 16.8752 2.88576 16.8279C2.77149 16.7805 2.67384 16.7004 2.60517 16.5975C2.53651 16.4946 2.4999 16.3737 2.5 16.25V12.5C2.5 12.3342 2.56585 12.1753 2.68306 12.0581C2.80027 11.9408 2.95924 11.875 3.125 11.875H6.875C6.99868 11.8749 7.11962 11.9115 7.22249 11.9802C7.32536 12.0488 7.40554 12.1465 7.45289 12.2608C7.50023 12.375 7.51261 12.5008 7.48846 12.6221C7.4643 12.7434 7.4047 12.8548 7.31719 12.9422L5.70938 14.55C6.725 15.4023 8.18984 16.25 10 16.25C12.8336 16.25 14.5414 14.575 14.5578 14.5578C14.6159 14.4997 14.6848 14.4536 14.7607 14.4221C14.8365 14.3907 14.9179 14.3745 15 14.3745C15.0821 14.3745 15.1635 14.3907 15.2393 14.4221C15.3152 14.4536 15.3841 14.4997 15.4422 14.5578ZM17.1141 3.17266C16.9999 3.12528 16.8742 3.11284 16.7529 3.1369C16.6317 3.16095 16.5203 3.22043 16.4328 3.30781L15.1781 4.56328C13.6039 3.21094 11.825 2.5 10 2.5C6.65469 2.5 4.64219 4.47422 4.55781 4.55781C4.44054 4.67509 4.37465 4.83415 4.37465 5C4.37465 5.16585 4.44054 5.32491 4.55781 5.44219C4.67509 5.55946 4.83415 5.62535 5 5.62535C5.16585 5.62535 5.32491 5.55946 5.44219 5.44219C5.45859 5.425 7.16641 3.75 10 3.75C11.8102 3.75 13.275 4.59766 14.2906 5.45L12.6828 7.05781C12.5953 7.14522 12.5357 7.25663 12.5115 7.37793C12.4874 7.49924 12.4998 7.62498 12.5471 7.73924C12.5945 7.85351 12.6746 7.95116 12.7775 8.01982C12.8804 8.08849 13.0013 8.1251 13.125 8.125H16.875C17.0408 8.125 17.1997 8.05915 17.3169 7.94194C17.4342 7.82473 17.5 7.66576 17.5 7.5V3.75C17.5 3.62639 17.4633 3.50556 17.3946 3.40279C17.3259 3.30003 17.2283 3.21994 17.1141 3.17266Z" fill="white"/>
</svg>
