<svg width="20" height="20" viewBox="0 0 20 20" fill="none" xmlns="http://www.w3.org/2000/svg">
<path d="M1.93402 9.02656C2.11858 7.47895 2.75158 6.01906 3.75511 4.82656C3.86615 4.69266 4.00391 4.58341 4.15958 4.5058C4.31526 4.42819 4.48542 4.38392 4.65917 4.37583C4.83293 4.36775 5.00647 4.39601 5.16868 4.45883C5.33089 4.52164 5.47821 4.61762 5.6012 4.74062L7.76292 6.94843C7.97111 7.15614 8.09869 7.43109 8.12287 7.72417C8.14706 8.01726 8.06628 8.3094 7.89495 8.54843C7.76518 8.73253 7.66745 8.93723 7.60589 9.1539C7.58634 9.21783 7.5468 9.2738 7.49308 9.31359C7.43937 9.35339 7.3743 9.37491 7.30745 9.37499H2.24495C2.20084 9.37506 2.15721 9.3658 2.11694 9.3478C2.07666 9.3298 2.04065 9.30347 2.01128 9.27056C1.98191 9.23765 1.95984 9.19889 1.94652 9.15683C1.9332 9.11478 1.92894 9.07038 1.93402 9.02656ZM10.734 1.87968C10.5614 1.86462 10.3875 1.88564 10.2234 1.94138C10.0593 1.99712 9.90855 2.08638 9.78079 2.20349C9.65303 2.3206 9.55102 2.46299 9.48124 2.62163C9.41145 2.78027 9.37542 2.95168 9.37542 3.12499V6.30234C9.37326 6.59716 9.47631 6.8831 9.66604 7.10878C9.85577 7.33445 10.1198 7.48507 10.4106 7.53359C10.9582 7.62393 11.4602 7.89393 11.8374 8.30103C12.2146 8.70813 12.4457 9.22919 12.4941 9.78209C12.5425 10.335 12.4056 10.8883 12.1049 11.3548C11.8042 11.8213 11.3568 12.1744 10.8332 12.3586C10.7723 12.381 10.7197 12.4215 10.6825 12.4747C10.6454 12.528 10.6254 12.5913 10.6254 12.6562V17.7523C10.6251 17.7966 10.6342 17.8404 10.6521 17.8808C10.67 17.9213 10.6963 17.9575 10.7293 17.9871C10.7622 18.0166 10.801 18.0388 10.8432 18.0522C10.8854 18.0656 10.9299 18.0699 10.9739 18.0648C12.9237 17.8241 14.7211 16.8872 16.0351 15.4266C17.3492 13.9661 18.0915 12.08 18.1254 10.1156C18.184 5.87421 14.9371 2.25624 10.734 1.87968ZM9.16058 12.3562C8.81122 12.2316 8.49397 12.0308 8.23182 11.7684C7.96968 11.506 7.76921 11.1885 7.64495 10.8391C7.62365 10.7771 7.58367 10.7232 7.5305 10.6849C7.47734 10.6466 7.41361 10.6256 7.34808 10.625H2.24417C2.2 10.6247 2.15627 10.6338 2.11587 10.6517C2.07547 10.6695 2.03931 10.6957 2.00978 10.7286C1.98025 10.7614 1.95802 10.8002 1.94456 10.8422C1.93109 10.8843 1.9267 10.9288 1.93167 10.9726C2.15051 12.7784 2.96841 14.4588 4.25465 15.745C5.54088 17.0312 7.22119 17.8491 9.02698 18.068C9.07088 18.0729 9.11532 18.0685 9.15739 18.0551C9.19946 18.0416 9.2382 18.0194 9.27105 17.9899C9.30391 17.9603 9.33012 17.9242 9.34798 17.8838C9.36583 17.8434 9.37492 17.7996 9.37464 17.7555V12.6562C9.37477 12.5901 9.35419 12.5257 9.3158 12.4719C9.2774 12.4181 9.22312 12.3776 9.16058 12.3562Z" fill="white"/>
</svg>
