<svg xmlns="http://www.w3.org/2000/svg" width="20" height="20" viewBox="0 0 20 20" fill="none">
    <path d="M10.7336 1.8797C10.5609 1.86464 10.387 1.88565 10.2229 1.9414C10.0588 1.99714 9.90813 2.0864 9.78038 2.2035C9.65262 2.32061 9.55061 2.463 9.48082 2.62164C9.41104 2.78028 9.375 2.9517 9.37501 3.12501V6.30235C9.37285 6.59718 9.47589 6.88312 9.66562 7.10879C9.85536 7.33447 10.1193 7.48509 10.4102 7.5336C10.8748 7.61156 11.308 7.81923 11.6597 8.13269C12.0115 8.44614 12.2675 8.85261 12.3983 9.30525C12.5291 9.75789 12.5293 10.2383 12.3989 10.691C12.2685 11.1438 12.0128 11.5505 11.6613 11.8642C11.3098 12.178 10.8768 12.386 10.4122 12.4643C9.94763 12.5427 9.47036 12.4881 9.03541 12.307C8.60047 12.1259 8.22556 11.8255 7.95391 11.4406C7.68225 11.0556 7.52491 10.6018 7.50001 10.1313C7.46798 9.48907 7.59923 8.95938 7.89063 8.54845C8.0619 8.30954 8.14265 8.01753 8.11846 7.72458C8.09428 7.43162 7.96673 7.15681 7.7586 6.94923L5.60079 4.74063C5.47779 4.61763 5.33048 4.52165 5.16827 4.45884C5.00606 4.39603 4.83252 4.36776 4.65876 4.37585C4.485 4.38394 4.31484 4.4282 4.15917 4.50582C4.00349 4.58343 3.86573 4.69267 3.7547 4.82657C2.45233 6.3875 1.78505 8.38136 1.88551 10.4118C1.98596 12.4422 2.8468 14.3604 4.29688 15.7852C5.81313 17.2895 7.86414 18.131 10 18.125H10.1164C12.2293 18.089 14.2456 17.2336 15.7398 15.7393C17.234 14.2449 18.0892 12.2286 18.125 10.1156C18.1836 5.87345 14.9367 2.25626 10.7336 1.8797ZM4.71251 5.62032L6.86954 7.82266V7.82735C6.54936 8.28683 6.34829 8.81863 6.28438 9.37501H3.15313C3.2783 7.99382 3.82237 6.68381 4.71251 5.62032ZM3.15391 10.625H6.30235C6.43196 11.3929 6.79745 12.1015 7.34806 12.6522C7.89868 13.203 8.60711 13.5686 9.37501 13.6984V16.8469C7.77426 16.7006 6.27536 15.9981 5.13882 14.8614C4.00228 13.7248 3.29995 12.2258 3.15391 10.625ZM14.8547 14.8547C13.7226 15.9947 12.225 16.6992 10.625 16.8445V13.6984C11.3493 13.5779 12.0216 13.2454 12.557 12.743C13.0689 12.2661 13.4372 11.6555 13.6202 10.9802C13.8032 10.305 13.7937 9.59201 13.5927 8.9219C13.3917 8.25178 13.0072 7.65125 12.4828 7.1882C11.9584 6.72514 11.3149 6.41803 10.625 6.30157V3.12501C14.1813 3.44376 16.9274 6.50626 16.875 10.0977C16.8505 11.8867 16.1251 13.5947 14.8547 14.8547Z" fill="white"/>
</svg>
