<svg width="20" height="20" viewBox="0 0 20 20" fill="none" xmlns="http://www.w3.org/2000/svg">
<path d="M16.875 5.62501H14.1344C14.1648 5.59923 14.1961 5.57423 14.2258 5.54688C14.4631 5.33608 14.6543 5.07859 14.7875 4.79052C14.9207 4.50244 14.9931 4.18998 15 3.87266C15.0103 3.52553 14.9495 3.17997 14.8213 2.85718C14.6932 2.5344 14.5005 2.24121 14.255 1.99561C14.0094 1.75 13.7163 1.55718 13.3936 1.42896C13.0708 1.30075 12.7253 1.23985 12.3781 1.25001C12.0607 1.25684 11.7481 1.32914 11.4598 1.46236C11.1716 1.59558 10.914 1.78686 10.7031 2.02423C10.4113 2.36242 10.1741 2.7441 10 3.15548C9.82592 2.7441 9.58869 2.36242 9.29688 2.02423C9.08599 1.78686 8.82837 1.59558 8.54015 1.46236C8.25193 1.32914 7.93932 1.25684 7.62187 1.25001C7.27474 1.23985 6.9292 1.30075 6.60645 1.42896C6.2837 1.55718 5.99057 1.75 5.74504 1.99561C5.49951 2.24121 5.30677 2.5344 5.17865 2.85718C5.05053 3.17997 4.98974 3.52553 5 3.87266C5.00694 4.18998 5.07929 4.50244 5.2125 4.79052C5.34572 5.07859 5.53695 5.33608 5.77422 5.54688C5.80391 5.57266 5.83516 5.59766 5.86563 5.62501H3.125C2.79348 5.62501 2.47554 5.7567 2.24112 5.99112C2.0067 6.22554 1.875 6.54349 1.875 6.87501V9.37501C1.875 9.70653 2.0067 10.0245 2.24112 10.2589C2.47554 10.4933 2.79348 10.625 3.125 10.625V15.625C3.125 15.9565 3.2567 16.2745 3.49112 16.5089C3.72554 16.7433 4.04348 16.875 4.375 16.875H15.625C15.9565 16.875 16.2745 16.7433 16.5089 16.5089C16.7433 16.2745 16.875 15.9565 16.875 15.625V10.625C17.2065 10.625 17.5245 10.4933 17.7589 10.2589C17.9933 10.0245 18.125 9.70653 18.125 9.37501V6.87501C18.125 6.54349 17.9933 6.22554 17.7589 5.99112C17.5245 5.7567 17.2065 5.62501 16.875 5.62501ZM11.6406 2.85235C11.7396 2.74307 11.8601 2.65543 11.9945 2.59493C12.129 2.53443 12.2745 2.50238 12.4219 2.50079H12.4602C12.6329 2.50187 12.8038 2.53743 12.9626 2.60538C13.1215 2.67333 13.2652 2.7723 13.3854 2.8965C13.5055 3.02071 13.5996 3.16764 13.6622 3.32868C13.7248 3.48973 13.7547 3.66165 13.75 3.83438C13.7484 3.9818 13.7164 4.1273 13.6559 4.26175C13.5954 4.39619 13.5077 4.51667 13.3984 4.61563C12.657 5.27188 11.4266 5.50313 10.6641 5.58438C10.7578 4.75704 11.0156 3.55469 11.6406 2.85235ZM6.63359 2.88048C6.87574 2.63836 7.20367 2.50162 7.54609 2.50001H7.58438C7.7318 2.5016 7.87729 2.53365 8.01174 2.59415C8.14618 2.65465 8.26667 2.74229 8.36563 2.85157C9.02109 3.59219 9.25234 4.82032 9.33359 5.57969C8.57422 5.50157 7.34609 5.26719 6.60547 4.61173C6.49619 4.51277 6.40855 4.39228 6.34805 4.25784C6.28755 4.1234 6.2555 3.9779 6.25391 3.83048C6.24906 3.65488 6.27994 3.48013 6.34467 3.31682C6.4094 3.15352 6.50663 3.00507 6.63047 2.88048H6.63359ZM3.125 6.87501H9.375V9.37501H3.125V6.87501ZM4.375 10.625H9.375V15.625H4.375V10.625ZM15.625 15.625H10.625V10.625H15.625V15.625ZM16.875 9.37501H10.625V6.87501H16.875V9.37501Z" fill="white"/>
</svg>
