<svg width="20" height="20" viewBox="0 0 20 20" fill="none" xmlns="http://www.w3.org/2000/svg">
<g id="Icons">
<path id="Vector" d="M17.6562 6.88126C17.625 6.80313 17.5922 6.72501 17.5586 6.64688C17.0545 5.48441 16.2388 4.48399 15.2016 3.75626H16.875C17.0408 3.75626 17.1997 3.69041 17.3169 3.5732C17.4342 3.45599 17.5 3.29702 17.5 3.13126C17.5 2.9655 17.4342 2.80652 17.3169 2.68931C17.1997 2.5721 17.0408 2.50626 16.875 2.50626H8.75C7.02195 2.50845 5.35792 3.16044 4.08835 4.33276C2.81877 5.50508 2.0365 7.11198 1.89688 8.83438C1.357 8.96859 0.877312 9.27902 0.533741 9.71655C0.190169 10.1541 0.00234494 10.6937 0 11.25C0 11.4158 0.065848 11.5747 0.183058 11.6919C0.300269 11.8092 0.45924 11.875 0.625 11.875C0.79076 11.875 0.949732 11.8092 1.06694 11.6919C1.18415 11.5747 1.25 11.4158 1.25 11.25C1.25015 11.0221 1.3126 10.7986 1.43061 10.6036C1.54861 10.4086 1.71768 10.2496 1.91953 10.1438C2.0751 11.546 2.6598 12.866 3.59375 13.9234L4.575 16.6703C4.66175 16.9133 4.82155 17.1235 5.03248 17.272C5.24341 17.4206 5.49514 17.5002 5.75313 17.5H6.74687C7.00473 17.5 7.25628 17.4203 7.46706 17.2718C7.67783 17.1232 7.83752 16.9132 7.92422 16.6703L8.07422 16.25H12.5508L12.7008 16.6703C12.7875 16.9132 12.9472 17.1232 13.1579 17.2718C13.3687 17.4203 13.6203 17.5 13.8781 17.5H14.8719C15.1297 17.5 15.3813 17.4203 15.5921 17.2718C15.8028 17.1232 15.9625 16.9132 16.0492 16.6703L17.3156 13.125H17.5C17.9973 13.125 18.4742 12.9275 18.8258 12.5758C19.1775 12.2242 19.375 11.7473 19.375 11.25V8.75001C19.3751 8.27973 19.1984 7.82659 18.8801 7.48045C18.5617 7.13431 18.1249 6.92045 17.6562 6.88126ZM11.875 5.62501H8.75C8.58424 5.62501 8.42527 5.55916 8.30806 5.44195C8.19085 5.32474 8.125 5.16577 8.125 5.00001C8.125 4.83425 8.19085 4.67527 8.30806 4.55806C8.42527 4.44085 8.58424 4.37501 8.75 4.37501H11.875C12.0408 4.37501 12.1997 4.44085 12.3169 4.55806C12.4342 4.67527 12.5 4.83425 12.5 5.00001C12.5 5.16577 12.4342 5.32474 12.3169 5.44195C12.1997 5.55916 12.0408 5.62501 11.875 5.62501ZM14.0625 10C13.8771 10 13.6958 9.94502 13.5417 9.84201C13.3875 9.739 13.2673 9.59258 13.1964 9.42127C13.1254 9.24997 13.1068 9.06147 13.143 8.87961C13.1792 8.69775 13.2685 8.53071 13.3996 8.39959C13.5307 8.26848 13.6977 8.17919 13.8796 8.14302C14.0615 8.10685 14.25 8.12541 14.4213 8.19637C14.5926 8.26733 14.739 8.38749 14.842 8.54166C14.945 8.69583 15 8.87709 15 9.06251C15 9.31115 14.9012 9.5496 14.7254 9.72542C14.5496 9.90123 14.3111 10 14.0625 10Z" fill="white"/>
</g>
</svg>
