<svg width="80" height="80" viewBox="0 0 26 26" fill="none" xmlns="http://www.w3.org/2000/svg">
    <path d="M13 5.85937e-05C5.82 5.85937e-05 0 5.82006 0 13.0001C0 20.1801 5.82 26.0001 13 26.0001C20.18 26.0001 26 20.1801 26 13.0001C26 12.3986 25.0982 12.2998 24.787 12.8146C21.581 18.1206 13.907 19.5936 9.997 15.5006C5.497 10.7826 7.686 4.53056 13.183 1.21056C13.6978 0.899459 13.599 -0.00244141 12.9975 -0.00244141L13 5.85937e-05ZM19.287 3.00006C17.354 3.00006 15.787 4.56706 15.787 6.50006C15.787 8.43306 17.354 10.0001 19.287 10.0001C21.22 10.0001 22.787 8.43306 22.787 6.50006C22.787 4.56706 21.22 3.00006 19.287 3.00006ZM14.287 10.0001C13.4586 10.0001 12.787 10.6717 12.787 11.5001C12.787 12.3285 13.4586 13.0001 14.287 13.0001C15.1155 13.0001 15.787 12.3285 15.787 11.5001C15.787 10.6717 15.1155 10.0001 14.287 10.0001Z" fill="url(#paint0_linear_296_3)"/>
    <defs>
        <linearGradient id="paint0_linear_296_3" x1="0.5" y1="14.0001" x2="26.5" y2="14.0001" gradientUnits="userSpaceOnUse">
            <stop stop-color="#96D3F8"/>
            <stop offset="1" stop-color="#BF94F2"/>
        </linearGradient>
    </defs>
</svg>