<svg xmlns="http://www.w3.org/2000/svg" width="48" height="34" viewBox="0 0 48 34" fill="none"><path d="M40.6989 0L47.482 11.3333L40.6989 22.6667L47.482 34H33.9157L27.1326 22.6667L20.3494 34L13.5663 22.6667H27.1326L33.9157 11.3333H20.3494H6.78314L0 0H13.5663H27.1326H40.6989Z" fill="white"/><path d="M33.9157 33.9998L27.1326 22.6665H40.6989L33.9157 33.9998Z" fill="#8DCCFC"/><path d="M47.4823 34.0003H33.916L40.6992 22.667L47.4823 34.0003Z" fill="#47A9F1"/><path d="M13.5662 22.6665L20.3493 33.9998L27.1324 22.6665H13.5662Z" fill="#47A9F1"/><path d="M27.1326 22.6668L33.9157 11.3335L40.6989 22.6668H27.1326Z" fill="#6EBEFF"/><path d="M47.4823 11.333L40.6992 22.6663L33.916 11.333H47.4823Z" fill="#47A9F1"/><path d="M47.4823 11.3333L40.6992 0L33.916 11.3333H47.4823Z" fill="#2890DB"/><path d="M40.6989 0H27.1326L33.9157 11.3333L40.6989 0Z" fill="#47A9F1"/><path d="M20.3494 11.3333H33.9157L27.1325 0L20.3494 11.3333Z" fill="#6EBEFF"/><path d="M20.3493 11.3333L13.5662 0H27.1324L20.3493 11.3333Z" fill="#8DCCFC"/><path d="M20.3492 11.3333H6.78296L13.5661 0L20.3492 11.3333Z" fill="#47A9F1"/><path d="M0 0H13.5663L6.78314 11.3333L0 0Z" fill="#6EBEFF"/><path opacity="0.4" d="M20.3494 11.3335H33.9157L27.1325 22.6668L20.3494 11.3335Z" fill="#75C1FF"/></svg>
