<svg width="32" height="32" viewBox="0 0 32 32" fill="none" xmlns="http://www.w3.org/2000/svg">
<path fill-rule="evenodd" clip-rule="evenodd" d="M14.4097 7.81385C15.4531 6.84772 15.7487 5.5354 15.7661 5C17.2293 6.19366 16.976 7.38732 16.8385 8.03527C16.8216 8.11498 16.8064 8.18643 16.7964 8.2486C16.7234 8.70268 16.7724 9.32394 17.1355 9.39588C17.594 9.48674 17.8648 8.65668 18.0182 8.18649C18.0338 8.1386 18.0482 8.09445 18.0615 8.05538C18.318 8.46196 18.6901 9.57461 18.1267 10.7726C17.5633 11.9706 16.2944 12.2384 15.44 12.0407C12.7795 11.4247 13.1055 9.0215 14.4097 7.81385ZM13.689 24.7963C13.689 25.0149 13.8154 25.2138 14.0133 25.3067L17.5079 26.946C17.8817 27.1213 18.3111 26.8485 18.3111 26.4356V18.2009C18.3111 17.8895 18.5635 17.6371 18.8748 17.6371H21.8457C22.1571 17.6371 22.4095 17.3847 22.4095 17.0734V13.5665C22.4095 13.2552 22.1571 13.0028 21.8457 13.0028H10.1543C9.84298 13.0028 9.59058 13.2552 9.59058 13.5665V17.0734C9.59058 17.3847 9.84298 17.6371 10.1543 17.6371H13.1252C13.4366 17.6371 13.689 17.8895 13.689 18.2009L13.689 24.7963Z" fill="url(#paint0_linear_2143_1334)"/>
<defs>
<linearGradient id="paint0_linear_2143_1334" x1="15.9996" y1="5" x2="15.9996" y2="26.4172" gradientUnits="userSpaceOnUse">
<stop stop-color="#FFED4A"/>
<stop offset="0.219608" stop-color="#FF974C"/>
<stop offset="0.484648" stop-color="#FF6935"/>
<stop offset="1" stop-color="#FF0202"/>
</linearGradient>
</defs>
</svg>
