<svg xmlns="http://www.w3.org/2000/svg" width="42" height="42" viewBox="0 0 42 42" fill="none">
    <path d="M12.5896 13.6275C14.1365 13.6275 15.3905 12.178 15.3905 10.39C15.3905 8.60204 14.1365 7.15259 12.5896 7.15259C11.0427 7.15259 9.78873 8.60204 9.78873 10.39C9.78873 12.178 11.0427 13.6275 12.5896 13.6275Z" fill="white"/>
    <path d="M38.0784 3.97241H3.92143C3.52493 3.97241 3.13232 4.05052 2.76601 4.20228C2.39971 4.35404 2.06689 4.57647 1.78656 4.85687C1.50623 5.13728 1.28389 5.47016 1.13223 5.8365C0.980575 6.20285 0.902572 6.59549 0.90268 6.99198V13.7883C0.902572 14.1848 0.980575 14.5774 1.13223 14.9437C1.28389 15.3101 1.50623 15.643 1.78656 15.9234C2.06689 16.2038 2.39971 16.4262 2.76601 16.578C3.13232 16.7297 3.52493 16.8078 3.92143 16.8078H28.4201L31.5135 15.022C32.207 14.6217 33.0311 14.5132 33.8045 14.7204C34.578 14.9277 35.2375 15.4336 35.638 16.127L36.0309 16.8078H38.0784C38.8793 16.8078 39.6473 16.4897 40.2136 15.9234C40.7799 15.3572 41.098 14.5891 41.098 13.7883V6.99198C41.098 6.19114 40.7799 5.4231 40.2136 4.85682C39.6473 4.29054 38.8793 3.97241 38.0784 3.97241ZM5.57657 13.6275C6.26843 13.6275 6.93739 13.2492 7.41194 12.5895C7.44935 12.5362 7.49696 12.4909 7.55203 12.4561C7.60709 12.4213 7.66851 12.3978 7.73272 12.387C7.79694 12.3761 7.86267 12.3781 7.92611 12.3928C7.98955 12.4075 8.04944 12.4347 8.10231 12.4727C8.15517 12.5108 8.19996 12.5589 8.23408 12.6144C8.2682 12.6699 8.29098 12.7315 8.30108 12.7959C8.31118 12.8602 8.30842 12.9259 8.29294 12.9892C8.27746 13.0525 8.24959 13.112 8.21093 13.1644C7.54926 14.0843 6.58892 14.6119 5.57657 14.6119C3.65212 14.6119 2.08647 12.718 2.08647 10.39C2.08647 8.06208 3.65204 6.16822 5.57649 6.16822C6.58859 6.16822 7.54877 6.6961 8.21084 7.6164C8.24951 7.66881 8.27738 7.72838 8.29286 7.79164C8.30833 7.8549 8.3111 7.9206 8.301 7.98494C8.29089 8.04928 8.26812 8.11097 8.234 8.16645C8.19988 8.22192 8.15509 8.27007 8.10223 8.30811C8.04936 8.34615 7.98947 8.37331 7.92603 8.38804C7.86259 8.40276 7.79686 8.40474 7.73264 8.39388C7.66843 8.38301 7.60701 8.35951 7.55194 8.32473C7.49688 8.28995 7.44927 8.24459 7.41186 8.19128C6.9369 7.53117 6.26802 7.1526 5.57649 7.1526C4.19492 7.1526 3.07077 8.60496 3.07077 10.39C3.07077 12.1751 4.19484 13.6276 5.57649 13.6276L5.57657 13.6275ZM12.5896 14.6119C10.5025 14.6119 8.80442 12.718 8.80442 10.39C8.80442 8.06208 10.5025 6.16822 12.5896 6.16822C14.6767 6.16822 16.3748 8.06216 16.3748 10.39C16.3748 12.7179 14.6768 14.6119 12.5896 14.6119V14.6119ZM23.6118 14.1197C23.6118 14.2502 23.5599 14.3754 23.4676 14.4677C23.3753 14.56 23.2501 14.6119 23.1196 14.6119C22.9891 14.6119 22.8639 14.56 22.7716 14.4677C22.6793 14.3754 22.6274 14.2502 22.6274 14.1197V8.14149L20.9441 11.0571C20.8814 11.1657 20.7912 11.2559 20.6826 11.3186C20.574 11.3813 20.4508 11.4144 20.3254 11.4144C20.2 11.4144 20.0768 11.3813 19.9681 11.3186C19.8595 11.2559 19.7693 11.1657 19.7066 11.0571L18.0233 8.14157V14.1197C18.0233 14.2502 17.9715 14.3754 17.8792 14.4677C17.7869 14.56 17.6617 14.6119 17.5312 14.6119C17.4006 14.6119 17.2754 14.56 17.1831 14.4677C17.0908 14.3754 17.039 14.2502 17.039 14.1197V6.79092C17.0389 6.65388 17.0841 6.52065 17.1675 6.41191C17.2509 6.30317 17.3679 6.225 17.5003 6.18952C17.6327 6.15404 17.773 6.16325 17.8996 6.2157C18.0263 6.26815 18.132 6.36092 18.2005 6.47962L20.3254 10.16L22.4502 6.47962C22.5187 6.36092 22.6245 6.26815 22.7511 6.2157C22.8777 6.16325 23.0181 6.15404 23.1505 6.18952C23.2829 6.225 23.3998 6.30317 23.4832 6.41191C23.5666 6.52065 23.6118 6.65388 23.6118 6.79092V14.1197ZM25.7783 14.1197C25.7783 14.2502 25.7265 14.3754 25.6342 14.4677C25.5419 14.56 25.4167 14.6119 25.2861 14.6119C25.1556 14.6119 25.0304 14.56 24.9381 14.4677C24.8458 14.3754 24.794 14.2502 24.794 14.1197V6.66049C24.794 6.52996 24.8458 6.40477 24.9381 6.31247C25.0304 6.22016 25.1556 6.16831 25.2861 6.16831C25.4167 6.16831 25.5419 6.22016 25.6342 6.31247C25.7265 6.40477 25.7783 6.52996 25.7783 6.66049V14.1197ZM32.3426 14.0073C32.3427 14.1372 32.2998 14.2634 32.2208 14.3665C32.1417 14.4696 32.0309 14.5437 31.9055 14.5774C31.78 14.611 31.647 14.6024 31.5269 14.5527C31.4069 14.5031 31.3066 14.4152 31.2416 14.3028L27.636 8.06913V14.1198C27.636 14.2503 27.5842 14.3755 27.4918 14.4678C27.3995 14.5601 27.2744 14.6119 27.1438 14.6119C27.0133 14.6119 26.8881 14.5601 26.7958 14.4678C26.7035 14.3755 26.6516 14.2503 26.6516 14.1198V6.81668C26.6516 6.674 26.6987 6.53529 26.7855 6.42206C26.8723 6.30884 26.9941 6.22743 27.1319 6.19047C27.2697 6.1535 27.4159 6.16303 27.5477 6.2176C27.6796 6.27216 27.7897 6.3687 27.8611 6.49225L31.3583 12.5383V6.66041C31.3583 6.52988 31.4101 6.40469 31.5024 6.31238C31.5947 6.22008 31.7199 6.16822 31.8504 6.16822C31.981 6.16822 32.1062 6.22008 32.1985 6.31238C32.2908 6.40469 32.3426 6.52988 32.3426 6.66041V14.0073ZM39.8907 11.872C39.3734 13.5108 38.031 14.6119 36.5502 14.6119C34.5834 14.6119 32.9833 12.718 32.9833 10.39C32.9833 8.06208 34.5834 6.16822 36.5502 6.16822C37.6833 6.16822 38.7226 6.78182 39.4016 7.85192C39.4362 7.9065 39.4598 7.96736 39.4709 8.03104C39.482 8.09471 39.4804 8.15995 39.4663 8.22303C39.4522 8.28611 39.4258 8.34579 39.3886 8.39867C39.3515 8.45155 39.3042 8.49659 39.2497 8.53122C39.1951 8.56585 39.1342 8.58938 39.0705 8.60049C39.0069 8.6116 38.9416 8.61005 38.8785 8.59594C38.8155 8.58184 38.7558 8.55544 38.7029 8.51827C38.65 8.4811 38.605 8.43387 38.5704 8.3793C38.0757 7.59975 37.3394 7.1526 36.5502 7.1526C35.1261 7.1526 33.9678 8.60496 33.9678 10.39C33.9678 12.1751 35.1262 13.6276 36.5502 13.6276C37.4043 13.6276 38.2027 13.0812 38.6791 12.2161L37.4479 12.2159C37.3833 12.2159 37.3193 12.2032 37.2596 12.1784C37.1999 12.1537 37.1456 12.1174 37.0999 12.0717C37.0542 12.026 37.018 11.9717 36.9932 11.912C36.9685 11.8523 36.9558 11.7883 36.9558 11.7237C36.9558 11.659 36.9685 11.595 36.9933 11.5353C37.018 11.4756 37.0543 11.4214 37.1 11.3757C37.1457 11.33 37.1999 11.2937 37.2597 11.269C37.3194 11.2442 37.3834 11.2315 37.448 11.2315H37.4481L39.4214 11.2318C39.4987 11.2318 39.575 11.25 39.6439 11.285C39.7129 11.32 39.7726 11.3707 39.8183 11.433C39.864 11.4954 39.8944 11.5676 39.9069 11.6439C39.9195 11.7202 39.9139 11.7984 39.8907 11.8721L39.8907 11.872ZM25.668 21.9134C25.207 21.911 24.7537 22.0307 24.354 22.2604C23.6835 22.6475 23.2228 23.3124 23.0569 24.1327C22.8915 25.0061 23.0507 25.9098 23.5047 26.6741C24.4415 28.2966 26.3468 28.9567 27.7518 28.1454C28.4223 27.7583 28.883 27.0933 29.049 26.273C29.2144 25.3996 29.0551 24.4959 28.601 23.7317C27.9362 22.5802 26.7833 21.9134 25.668 21.9134ZM18.3172 26.1574C17.8562 26.155 17.4029 26.2747 17.0032 26.5044C16.3327 26.8915 15.872 27.5564 15.706 28.3767C15.5406 29.2501 15.6999 30.1538 16.1539 30.918C17.0907 32.5407 18.9962 33.2005 20.4009 32.3894C21.0715 32.0023 21.5321 31.3374 21.6981 30.5171C21.8635 29.6437 21.7042 28.74 21.2502 27.9757C20.5853 26.8243 19.4326 26.1574 18.3172 26.1574Z" fill="white"/>
    <path d="M38.7052 21.4396L35.6382 16.1273C35.44 15.7839 35.176 15.483 34.8615 15.2416C34.5469 15.0002 34.1879 14.8232 33.8049 14.7206C33.4219 14.6179 33.0225 14.5918 32.6294 14.6435C32.2363 14.6953 31.8572 14.8239 31.5139 15.0222L8.63912 28.229C7.94566 28.6293 7.43966 29.2888 7.23241 30.0622C7.02516 30.8357 7.13364 31.6598 7.53399 32.3532L10.6011 37.6655C10.7993 38.0089 11.0632 38.3098 11.3778 38.5512C11.6924 38.7926 12.0514 38.9696 12.4344 39.0723C12.8173 39.1749 13.2168 39.2011 13.6099 39.1493C14.003 39.0976 14.3821 38.9689 14.7254 38.7706L37.6001 25.5639C37.9435 25.3657 38.2444 25.1017 38.4858 24.7872C38.7272 24.4726 38.9042 24.1136 39.0068 23.7306C39.1095 23.3476 39.1356 22.9482 39.0839 22.5551C39.0321 22.162 38.9035 21.7829 38.7052 21.4396ZM14.548 36.8996C14.1812 37.0825 13.7742 37.1697 13.3646 37.1532C12.9551 37.1367 12.5564 37.017 12.2055 36.8052C12.1495 36.7723 12.1006 36.7286 12.0616 36.6766C12.0226 36.6246 11.9942 36.5655 11.9782 36.5025C11.9622 36.4395 11.9588 36.374 11.9682 36.3097C11.9776 36.2454 11.9997 36.1836 12.0331 36.1279C12.0665 36.0722 12.1107 36.0236 12.163 35.985C12.2153 35.9465 12.2747 35.9186 12.3378 35.9031C12.4009 35.8876 12.4664 35.8848 12.5306 35.8947C12.5948 35.9047 12.6564 35.9273 12.7119 35.9611C12.9251 36.0895 13.1676 36.1611 13.4163 36.1691C13.665 36.1771 13.9116 36.1212 14.1325 36.0068C14.3535 35.8924 14.5415 35.7233 14.6785 35.5156C14.8156 35.308 14.8971 35.0686 14.9154 34.8205C14.9336 34.5723 14.888 34.3236 14.7828 34.0981C14.6776 33.8726 14.5164 33.6778 14.3146 33.5323C14.1127 33.3868 13.8769 33.2955 13.6297 33.267C13.3825 33.2385 13.1322 33.2738 12.9025 33.3696C12.8749 33.3847 12.8474 33.4 12.8189 33.4142C12.7766 33.4351 12.7349 33.4542 12.6931 33.4719C12.6879 33.4742 12.6825 33.476 12.6773 33.4783L12.6742 33.4795C12.3137 33.63 11.9223 33.6918 11.533 33.6596C11.1436 33.6275 10.7677 33.5023 10.4368 33.2946C10.1059 33.087 9.82964 32.8029 9.63135 32.4663C9.43306 32.1297 9.31849 31.7503 9.29728 31.3602C9.27606 30.9701 9.34883 30.5806 9.50945 30.2245C9.67007 29.8684 9.91386 29.556 10.2203 29.3137C10.5268 29.0714 10.8869 28.9062 11.2705 28.832C11.654 28.7578 12.0498 28.7768 12.4245 28.8873C12.5489 28.925 12.6533 29.0103 12.715 29.1246C12.7768 29.2389 12.7908 29.373 12.7541 29.4976C12.7173 29.6222 12.6328 29.7273 12.5189 29.7898C12.4051 29.8524 12.2711 29.8674 12.1462 29.8315C11.9226 29.7654 11.6865 29.754 11.4576 29.7981C11.2286 29.8423 11.0137 29.9408 10.8308 30.0853C10.6478 30.2299 10.5023 30.4162 10.4064 30.6287C10.3105 30.8412 10.267 31.0736 10.2796 31.3064C10.2922 31.5392 10.3606 31.7656 10.4789 31.9664C10.5972 32.1673 10.762 32.3369 10.9594 32.4608C11.1569 32.5847 11.3812 32.6594 11.6136 32.6786C11.8459 32.6978 12.0795 32.6609 12.2946 32.571C12.3222 32.5559 12.35 32.5407 12.3788 32.5265C12.4169 32.5075 12.4559 32.4896 12.495 32.4728L12.4984 32.4713L12.4987 32.4712L12.5021 32.4697C13.0864 32.2189 13.7454 32.2061 14.339 32.4339C14.9326 32.6616 15.4138 33.112 15.6804 33.6892C15.947 34.2664 15.9778 34.9249 15.7663 35.5244C15.5548 36.124 15.1177 36.6174 14.548 36.8996ZM22.6629 30.7124C22.4401 31.8132 21.8115 32.7116 20.8931 33.2419C20.3454 33.5571 19.7241 33.7218 19.0922 33.7192C17.6335 33.7192 16.1483 32.877 15.3014 31.4102C14.7274 30.4382 14.5281 29.29 14.7412 28.1815C14.964 27.0806 15.5926 26.1822 16.511 25.6519C18.3862 24.5693 20.8945 25.391 22.1027 27.4836C22.6767 28.4556 22.876 29.6038 22.6629 30.7124ZM30.0138 26.4683C29.7909 27.5692 29.1624 28.4676 28.2439 28.9979C27.6962 29.3131 27.0749 29.4777 26.443 29.4751C24.9843 29.4751 23.4991 28.633 22.6523 27.1662C22.0782 26.1943 21.879 25.0461 22.092 23.9375C22.3149 22.8366 22.9434 21.9382 23.8618 21.4079C25.7367 20.3253 28.2452 21.147 29.4535 23.2396C30.0275 24.2116 30.2268 25.3598 30.0138 26.4683ZM37.4415 23.6468C37.349 23.7392 37.2286 23.7986 37.099 23.8158C36.9694 23.8329 36.8377 23.8069 36.7243 23.7418L30.1486 19.9522L33.3432 25.4855C33.3756 25.5415 33.3965 25.6033 33.405 25.6674C33.4134 25.7315 33.4091 25.7966 33.3924 25.859C33.3757 25.9214 33.3468 25.98 33.3075 26.0313C33.2681 26.0825 33.219 26.1256 33.1631 26.1579C33.1071 26.1902 33.0453 26.2112 32.9812 26.2196C32.9171 26.228 32.852 26.2238 32.7896 26.207C32.7271 26.1903 32.6686 26.1614 32.6173 26.1221C32.566 26.0827 32.523 26.0337 32.4907 25.9777L28.6824 19.3814C28.6103 19.2566 28.5813 19.1115 28.6001 18.9685C28.6188 18.8256 28.6842 18.6928 28.7861 18.5908C28.888 18.4888 29.0206 18.4233 29.1636 18.4044C29.3065 18.3855 29.4516 18.4143 29.5765 18.4863L35.9566 22.1632L32.852 16.7858C32.8196 16.7298 32.7987 16.668 32.7902 16.6039C32.7818 16.5398 32.7861 16.4747 32.8028 16.4123C32.8195 16.3498 32.8484 16.2913 32.8877 16.24C32.9271 16.1887 32.9762 16.1457 33.0321 16.1134C33.0881 16.0811 33.1499 16.0601 33.214 16.0517C33.2781 16.0432 33.3432 16.0475 33.4056 16.0642C33.4681 16.081 33.5266 16.1098 33.5779 16.1492C33.6292 16.1885 33.6722 16.2376 33.7045 16.2936L37.5358 22.9297C37.601 23.043 37.6271 23.1746 37.6101 23.3042C37.593 23.4338 37.5338 23.5542 37.4415 23.6468Z" fill="white"/>
</svg>