<svg width="950" height="222" viewBox="0 0 950 222" fill="none" xmlns="http://www.w3.org/2000/svg">
<g clip-path="url(#clip0_20_95)">
<path d="M111 0L207.129 55.5V166.5L111 222L14.8712 166.5V55.5L111 0Z" fill="#37262C"/>
<mask id="mask0_20_95" style="mask-type:luminance" maskUnits="userSpaceOnUse" x="45" y="23" width="132" height="176">
<path d="M176.951 23.5393H45.0494V198.461H176.951V23.5393Z" fill="white"/>
</mask>
<g mask="url(#mask0_20_95)">
<path d="M162.293 71.9321C167.172 66.6199 171.998 61.3714 176.824 56.1193C176.866 56.1262 176.908 56.1372 176.954 56.1441C175.199 74.8672 173.444 93.5943 171.681 112.42C151.462 93.6223 131.307 74.8814 111.095 56.0909C100.701 67.3906 90.2923 78.7081 79.838 90.0752C80.0138 90.2659 80.2216 90.5277 80.4642 90.7542C83.5877 93.6507 86.7216 96.5367 89.8455 99.4333C95.1499 104.364 100.447 109.301 105.752 114.234C111.13 119.235 116.516 124.232 121.894 129.233C122.474 129.775 123.03 130.34 123.6 130.892C123.874 131.157 123.871 131.341 123.579 131.649C122.147 133.145 120.751 134.676 119.343 136.201C115.918 139.918 112.495 143.638 109.076 147.363C108.89 147.564 108.735 147.798 108.538 148.048C108.492 148.024 108.397 147.992 108.33 147.932C104.056 143.964 99.7827 139.992 95.5156 136.02C92.3114 133.039 89.1174 130.043 85.9091 127.066C79.3104 120.936 72.7044 114.814 66.1089 108.685C60.7797 103.737 55.4578 98.7823 50.1359 93.824C49.3725 93.113 48.6338 92.3739 47.8846 91.6491C47.6947 91.4652 47.6103 91.3057 47.8457 91.0618C49.0137 89.8418 50.1675 88.6072 51.3141 87.3661C53.7061 84.7736 56.0909 82.1777 58.4794 79.5819C61.8808 75.8822 65.2753 72.176 68.6767 68.4766C70.9454 66.0115 73.2251 63.5533 75.4938 61.0886C79.1132 57.1522 82.7293 53.2086 86.3491 49.2722C88.9449 46.4499 91.548 43.6313 94.1438 40.809C98.8188 35.7232 103.487 30.6339 108.158 25.5481C108.675 24.9858 109.192 24.4234 109.702 23.854C110.075 23.4438 110.124 23.4403 110.539 23.8258C114.817 27.7904 119.094 31.755 123.368 35.7232C129.513 41.4316 135.655 47.1468 141.796 52.8583C145.768 56.5471 149.746 60.2326 153.71 63.9246C156.471 66.4961 159.222 69.085 161.976 71.663C162.089 71.7693 162.212 71.8683 162.289 71.9353L162.293 71.9321Z" fill="white"/>
<path d="M45.0494 165.923C46.8152 147.076 48.5669 128.339 50.3222 109.58C50.368 109.608 50.4524 109.644 50.519 109.704C53.0657 112.035 55.6161 114.358 58.1486 116.703C62.2152 120.466 66.2672 124.24 70.3229 128.01C74.5299 131.921 78.7301 135.84 82.9371 139.752C88.5439 144.961 94.158 150.164 99.758 155.38C103.339 158.715 106.898 162.068 110.469 165.414C110.574 165.513 110.655 165.654 110.775 165.725C110.856 165.771 111.039 165.775 111.088 165.718C111.735 165 112.351 164.25 113.005 163.539C116.681 159.532 120.36 155.529 124.043 151.529C127.118 148.186 130.202 144.855 133.277 141.516C136.126 138.425 138.968 135.331 141.814 132.236C142.271 131.741 142.25 131.737 141.744 131.274C139.45 129.166 137.167 127.048 134.884 124.929C129.425 119.861 123.966 114.793 118.514 109.722C112.597 104.218 106.681 98.7153 100.767 93.2087C99.8882 92.3881 99.0193 91.5533 98.0976 90.6799C102.853 85.5057 107.602 80.3384 112.393 75.1257C132.644 93.9547 152.947 112.837 173.275 131.737C152.792 154.008 132.387 176.194 111.907 198.461C94.5554 182.33 77.1683 166.171 59.735 149.966C54.86 155.264 49.9739 160.572 45.053 165.923H45.0494Z" fill="#D6BDAF"/>
</g>
</g>
<path d="M329.526 137.02C329.526 135.215 329.075 133.431 328.173 131.667C327.271 129.903 325.527 128.283 322.943 126.807C320.4 125.33 316.647 124.079 311.685 123.054C307.993 122.233 304.691 121.311 301.779 120.285C298.908 119.26 296.488 118.029 294.52 116.594C292.551 115.158 291.054 113.436 290.028 111.426C289.003 109.416 288.49 107.037 288.49 104.289C288.49 101.828 289.023 99.5107 290.09 97.3369C291.197 95.1221 292.756 93.1943 294.766 91.5537C296.816 89.8721 299.277 88.5596 302.148 87.6162C305.061 86.6729 308.321 86.2012 311.931 86.2012C317.058 86.2012 321.446 87.083 325.097 88.8467C328.788 90.5693 331.598 92.9277 333.525 95.9219C335.494 98.916 336.479 102.3 336.479 106.073H329.157C329.157 103.776 328.48 101.603 327.127 99.5518C325.814 97.501 323.866 95.8193 321.282 94.5068C318.739 93.1943 315.622 92.5381 311.931 92.5381C308.116 92.5381 305.02 93.1123 302.641 94.2607C300.262 95.4092 298.519 96.8652 297.411 98.6289C296.345 100.393 295.812 102.218 295.812 104.104C295.812 105.581 296.037 106.935 296.488 108.165C296.98 109.354 297.842 110.462 299.072 111.487C300.344 112.513 302.148 113.477 304.486 114.379C306.824 115.281 309.859 116.163 313.592 117.024C318.965 118.214 323.354 119.67 326.758 121.393C330.203 123.074 332.746 125.166 334.387 127.668C336.027 130.129 336.848 133.123 336.848 136.65C336.848 139.398 336.273 141.921 335.125 144.218C333.977 146.474 332.315 148.422 330.142 150.062C328.009 151.703 325.425 152.975 322.39 153.877C319.396 154.779 316.032 155.23 312.3 155.23C306.681 155.23 301.923 154.308 298.026 152.462C294.171 150.575 291.238 148.114 289.229 145.079C287.26 142.003 286.275 138.742 286.275 135.297H293.597C293.843 138.742 294.93 141.47 296.857 143.479C298.785 145.448 301.144 146.843 303.933 147.663C306.763 148.483 309.552 148.894 312.3 148.894C316.073 148.894 319.231 148.34 321.774 147.232C324.317 146.125 326.245 144.669 327.558 142.864C328.87 141.06 329.526 139.111 329.526 137.02ZM371.978 138.435L388.035 87.4316H393.203L390.127 101.151L373.331 154H368.163L371.978 138.435ZM355.305 87.4316L369.394 138.742L372.408 154H367.056L347.737 87.4316H355.305ZM413.198 138.558L426.918 87.4316H434.485L415.167 154H409.876L413.198 138.558ZM394.249 87.4316L410.061 138.004L414.06 154H408.892L391.727 101.09L388.835 87.4316H394.249ZM489.118 142.064V107.734C489.118 104.576 488.462 101.849 487.149 99.5518C485.837 97.2549 483.909 95.4912 481.366 94.2607C478.823 93.0303 475.686 92.415 471.953 92.415C468.508 92.415 465.432 93.0303 462.725 94.2607C460.059 95.4502 457.946 97.0703 456.388 99.1211C454.87 101.131 454.111 103.366 454.111 105.827L446.729 105.766C446.729 103.264 447.344 100.844 448.574 98.5059C449.805 96.168 451.548 94.0762 453.804 92.2305C456.06 90.3848 458.746 88.9287 461.863 87.8623C465.021 86.7549 468.487 86.2012 472.261 86.2012C477.019 86.2012 481.202 87.001 484.812 88.6006C488.462 90.2002 491.312 92.5996 493.363 95.7988C495.414 98.998 496.439 103.018 496.439 107.857V140.034C496.439 142.331 496.604 144.71 496.932 147.171C497.301 149.632 497.813 151.662 498.47 153.262V154H490.656C490.164 152.523 489.774 150.678 489.487 148.463C489.241 146.207 489.118 144.074 489.118 142.064ZM490.841 115.24L490.964 120.9H476.506C472.732 120.9 469.349 121.249 466.354 121.946C463.401 122.603 460.899 123.587 458.849 124.899C456.798 126.171 455.219 127.709 454.111 129.514C453.045 131.318 452.512 133.369 452.512 135.666C452.512 138.045 453.106 140.219 454.296 142.188C455.526 144.156 457.249 145.735 459.464 146.925C461.72 148.073 464.386 148.647 467.462 148.647C471.563 148.647 475.173 147.889 478.29 146.371C481.448 144.854 484.053 142.864 486.104 140.403C488.154 137.942 489.528 135.256 490.226 132.344L493.425 136.589C492.892 138.64 491.907 140.752 490.472 142.926C489.077 145.059 487.252 147.068 484.996 148.955C482.74 150.801 480.074 152.318 476.998 153.508C473.963 154.656 470.518 155.23 466.662 155.23C462.314 155.23 458.521 154.41 455.28 152.77C452.081 151.129 449.579 148.894 447.774 146.063C446.011 143.192 445.129 139.952 445.129 136.343C445.129 133.062 445.826 130.129 447.221 127.545C448.615 124.92 450.625 122.705 453.25 120.9C455.916 119.055 459.115 117.66 462.848 116.717C466.621 115.732 470.846 115.24 475.521 115.24H490.841ZM523.448 100.229V179.594H516.065V87.4316H522.956L523.448 100.229ZM569.714 120.101V121.393C569.714 126.355 569.14 130.908 567.991 135.051C566.843 139.193 565.182 142.782 563.008 145.817C560.875 148.812 558.229 151.129 555.071 152.77C551.913 154.41 548.324 155.23 544.305 155.23C540.326 155.23 536.778 154.615 533.661 153.385C530.544 152.154 527.857 150.411 525.602 148.155C523.387 145.858 521.603 143.192 520.249 140.157C518.937 137.081 518.014 133.718 517.48 130.067V113.025C518.096 109.006 519.101 105.355 520.495 102.074C521.89 98.793 523.674 95.9629 525.848 93.584C528.062 91.2051 530.688 89.3799 533.723 88.1084C536.758 86.8369 540.224 86.2012 544.12 86.2012C548.181 86.2012 551.79 87.001 554.948 88.6006C558.147 90.1592 560.834 92.4355 563.008 95.4297C565.223 98.3828 566.884 101.951 567.991 106.135C569.14 110.277 569.714 114.933 569.714 120.101ZM562.331 121.393V120.101C562.331 116.204 561.921 112.595 561.101 109.272C560.321 105.95 559.111 103.059 557.471 100.598C555.871 98.0957 553.82 96.1475 551.318 94.7529C548.857 93.3584 545.925 92.6611 542.521 92.6611C538.993 92.6611 535.979 93.2559 533.477 94.4453C531.016 95.5938 528.965 97.1318 527.324 99.0596C525.684 100.946 524.392 103.018 523.448 105.273C522.505 107.529 521.808 109.744 521.356 111.918V131.544C522.136 134.661 523.387 137.553 525.109 140.219C526.832 142.844 529.129 144.956 532 146.556C534.912 148.114 538.46 148.894 542.644 148.894C546.007 148.894 548.919 148.196 551.38 146.802C553.841 145.407 555.871 143.459 557.471 140.957C559.111 138.455 560.321 135.543 561.101 132.221C561.921 128.898 562.331 125.289 562.331 121.393Z" fill="#D6BDAF"/>
<path d="M585.402 149.509C585.402 148.073 585.854 146.863 586.756 145.879C587.699 144.854 588.971 144.341 590.57 144.341C592.211 144.341 593.503 144.833 594.446 145.817C595.39 146.802 595.861 148.032 595.861 149.509C595.861 150.903 595.39 152.093 594.446 153.077C593.503 154.062 592.211 154.554 590.57 154.554C588.971 154.554 587.699 154.062 586.756 153.077C585.854 152.093 585.402 150.903 585.402 149.509ZM640.773 148.894C643.891 148.894 646.803 148.319 649.51 147.171C652.258 145.981 654.514 144.238 656.277 141.941C658.082 139.604 659.107 136.753 659.354 133.39H666.367C666.162 137.614 664.87 141.388 662.491 144.71C660.153 147.991 657.077 150.575 653.263 152.462C649.489 154.308 645.326 155.23 640.773 155.23C636.139 155.23 632.037 154.39 628.469 152.708C624.941 151.026 621.988 148.688 619.609 145.694C617.23 142.659 615.426 139.132 614.195 135.112C613.006 131.052 612.411 126.684 612.411 122.008V119.424C612.411 114.748 613.006 110.4 614.195 106.381C615.426 102.32 617.23 98.793 619.609 95.7988C621.988 92.7637 624.941 90.4053 628.469 88.7236C631.996 87.042 636.077 86.2012 640.712 86.2012C645.47 86.2012 649.735 87.165 653.509 89.0928C657.323 91.0205 660.358 93.748 662.614 97.2754C664.911 100.803 666.162 104.986 666.367 109.826H659.354C659.148 106.258 658.205 103.182 656.523 100.598C654.842 98.0137 652.627 96.0244 649.879 94.6299C647.131 93.2354 644.075 92.5381 640.712 92.5381C636.938 92.5381 633.719 93.2764 631.053 94.7529C628.387 96.1885 626.213 98.1777 624.531 100.721C622.891 103.223 621.681 106.094 620.901 109.334C620.122 112.533 619.732 115.896 619.732 119.424V122.008C619.732 125.576 620.102 128.98 620.84 132.221C621.619 135.42 622.829 138.271 624.47 140.772C626.151 143.274 628.325 145.264 630.991 146.74C633.698 148.176 636.959 148.894 640.773 148.894ZM677.134 121.762V119.731C677.134 114.892 677.831 110.421 679.226 106.319C680.62 102.218 682.609 98.6699 685.193 95.6758C687.818 92.6816 690.956 90.3643 694.606 88.7236C698.257 87.042 702.317 86.2012 706.788 86.2012C711.3 86.2012 715.381 87.042 719.031 88.7236C722.682 90.3643 725.819 92.6816 728.444 95.6758C731.069 98.6699 733.079 102.218 734.474 106.319C735.868 110.421 736.565 114.892 736.565 119.731V121.762C736.565 126.602 735.868 131.072 734.474 135.174C733.079 139.234 731.069 142.762 728.444 145.756C725.86 148.75 722.743 151.088 719.093 152.77C715.442 154.41 711.382 155.23 706.911 155.23C702.399 155.23 698.318 154.41 694.668 152.77C691.018 151.088 687.88 148.75 685.255 145.756C682.63 142.762 680.62 139.234 679.226 135.174C677.831 131.072 677.134 126.602 677.134 121.762ZM684.455 119.731V121.762C684.455 125.412 684.947 128.878 685.932 132.159C686.916 135.399 688.352 138.291 690.238 140.834C692.125 143.336 694.463 145.305 697.252 146.74C700.041 148.176 703.261 148.894 706.911 148.894C710.521 148.894 713.699 148.176 716.447 146.74C719.236 145.305 721.574 143.336 723.461 140.834C725.348 138.291 726.763 135.399 727.706 132.159C728.69 128.878 729.183 125.412 729.183 121.762V119.731C729.183 116.122 728.69 112.697 727.706 109.457C726.763 106.217 725.327 103.325 723.399 100.782C721.513 98.2393 719.175 96.2295 716.386 94.7529C713.597 93.2764 710.397 92.5381 706.788 92.5381C703.179 92.5381 699.979 93.2764 697.19 94.7529C694.442 96.2295 692.104 98.2393 690.177 100.782C688.29 103.325 686.854 106.217 685.87 109.457C684.927 112.697 684.455 116.122 684.455 119.731ZM764.436 154H757.114V79.1875C757.114 74.6348 757.894 70.7998 759.452 67.6826C761.052 64.5654 763.308 62.207 766.22 60.6074C769.173 59.0078 772.68 58.208 776.74 58.208C778.012 58.208 779.324 58.29 780.678 58.4541C782.031 58.5771 783.344 58.8438 784.615 59.2539L784.062 65.4678C783.036 65.1807 781.99 64.9961 780.924 64.9141C779.898 64.791 778.688 64.7295 777.294 64.7295C774.628 64.7295 772.331 65.3037 770.403 66.4521C768.476 67.5596 766.999 69.1797 765.974 71.3125C764.948 73.4453 764.436 76.0703 764.436 79.1875V154ZM780.309 87.4316V93.4609H746.102V87.4316H780.309ZM806.148 154H798.827V79.1875C798.827 74.6348 799.606 70.7998 801.165 67.6826C802.765 64.5654 805.021 62.207 807.933 60.6074C810.886 59.0078 814.393 58.208 818.453 58.208C819.725 58.208 821.037 58.29 822.391 58.4541C823.744 58.5771 825.057 58.8438 826.328 59.2539L825.774 65.4678C824.749 65.1807 823.703 64.9961 822.637 64.9141C821.611 64.791 820.401 64.7295 819.007 64.7295C816.341 64.7295 814.044 65.3037 812.116 66.4521C810.188 67.5596 808.712 69.1797 807.687 71.3125C806.661 73.4453 806.148 76.0703 806.148 79.1875V154ZM822.021 87.4316V93.4609H787.814V87.4316H822.021ZM859.489 155.23C855.142 155.23 851.143 154.431 847.492 152.831C843.883 151.231 840.725 148.976 838.018 146.063C835.352 143.151 833.28 139.706 831.804 135.728C830.368 131.708 829.65 127.319 829.65 122.562V119.916C829.65 114.789 830.409 110.154 831.927 106.012C833.444 101.869 835.536 98.3213 838.202 95.3682C840.868 92.415 843.903 90.1592 847.308 88.6006C850.753 87.001 854.362 86.2012 858.136 86.2012C862.36 86.2012 866.113 86.96 869.395 88.4775C872.676 89.9541 875.424 92.0664 877.639 94.8145C879.895 97.5215 881.597 100.741 882.745 104.474C883.894 108.165 884.468 112.246 884.468 116.717V121.208H834.08V114.933H877.146V114.071C877.064 110.339 876.306 106.853 874.87 103.612C873.476 100.331 871.384 97.665 868.595 95.6143C865.806 93.5635 862.319 92.5381 858.136 92.5381C855.019 92.5381 852.147 93.1943 849.522 94.5068C846.938 95.8193 844.703 97.7061 842.816 100.167C840.971 102.587 839.535 105.479 838.51 108.842C837.525 112.164 837.033 115.855 837.033 119.916V122.562C837.033 126.253 837.566 129.698 838.633 132.897C839.74 136.056 841.299 138.845 843.309 141.265C845.359 143.685 847.779 145.571 850.568 146.925C853.357 148.278 856.434 148.955 859.797 148.955C863.734 148.955 867.221 148.237 870.256 146.802C873.291 145.325 876.019 143.008 878.438 139.85L883.053 143.418C881.617 145.551 879.812 147.52 877.639 149.324C875.506 151.129 872.942 152.564 869.948 153.631C866.954 154.697 863.468 155.23 859.489 155.23ZM924.704 155.23C920.356 155.23 916.357 154.431 912.707 152.831C909.098 151.231 905.939 148.976 903.232 146.063C900.566 143.151 898.495 139.706 897.019 135.728C895.583 131.708 894.865 127.319 894.865 122.562V119.916C894.865 114.789 895.624 110.154 897.142 106.012C898.659 101.869 900.751 98.3213 903.417 95.3682C906.083 92.415 909.118 90.1592 912.522 88.6006C915.968 87.001 919.577 86.2012 923.351 86.2012C927.575 86.2012 931.328 86.96 934.609 88.4775C937.891 89.9541 940.639 92.0664 942.854 94.8145C945.109 97.5215 946.812 100.741 947.96 104.474C949.108 108.165 949.683 112.246 949.683 116.717V121.208H899.295V114.933H942.361V114.071C942.279 110.339 941.521 106.853 940.085 103.612C938.69 100.331 936.599 97.665 933.81 95.6143C931.021 93.5635 927.534 92.5381 923.351 92.5381C920.233 92.5381 917.362 93.1943 914.737 94.5068C912.153 95.8193 909.918 97.7061 908.031 100.167C906.186 102.587 904.75 105.479 903.725 108.842C902.74 112.164 902.248 115.855 902.248 119.916V122.562C902.248 126.253 902.781 129.698 903.848 132.897C904.955 136.056 906.514 138.845 908.523 141.265C910.574 143.685 912.994 145.571 915.783 146.925C918.572 148.278 921.648 148.955 925.012 148.955C928.949 148.955 932.436 148.237 935.471 146.802C938.506 145.325 941.233 143.008 943.653 139.85L948.268 143.418C946.832 145.551 945.027 147.52 942.854 149.324C940.721 151.129 938.157 152.564 935.163 153.631C932.169 154.697 928.683 155.23 924.704 155.23Z" fill="#D6BDAF" fill-opacity="0.5"/>
<defs>
<clipPath id="clip0_20_95">
<rect width="222" height="222" fill="white"/>
</clipPath>
</defs>
</svg>
