<svg xmlns="http://www.w3.org/2000/svg" width="24" height="24" viewBox="0 0 24 24" fill="none">
    <path d="M16.3716 7.62656C16.1218 6.2835 15.5099 5.03418 14.602 4.01345C13.694 2.99272 12.5246 2.23935 11.2198 1.83466C9.91503 1.42997 8.5245 1.38934 7.19832 1.71714C5.87215 2.04495 4.66069 2.72874 3.69472 3.69472C2.72874 4.66069 2.04495 5.87215 1.71714 7.19832C1.38934 8.5245 1.42997 9.91503 1.83466 11.2198C2.23935 12.5246 2.99272 13.694 4.01345 14.602C5.03418 15.5099 6.2835 16.1218 7.62656 16.3716C7.87636 17.7146 8.48825 18.9639 9.39616 19.9847C10.3041 21.0054 11.4735 21.7588 12.7783 22.1635C14.0831 22.5681 15.4736 22.6088 16.7998 22.281C18.126 21.9532 19.3374 21.2694 20.3034 20.3034C21.2694 19.3374 21.9532 18.126 22.281 16.7998C22.6088 15.4736 22.5681 14.0831 22.1635 12.7783C21.7588 11.4735 21.0054 10.3041 19.9847 9.39616C18.9639 8.48825 17.7146 7.87636 16.3716 7.62656ZM21 15C21 15.1425 20.9934 15.2812 20.9831 15.4228L16.2956 10.7353C16.4173 10.2279 16.4858 9.70913 16.5 9.18749C17.79 9.51739 18.933 10.2682 19.7481 11.321C20.5632 12.3739 21.0037 13.6685 21 15ZM13.7437 14.8041L18.6759 19.7372C18.214 20.0963 17.702 20.3859 17.1562 20.5969L12.2944 15.735C12.8114 15.481 13.2977 15.1687 13.7437 14.8041ZM14.8041 13.7437C15.1686 13.2983 15.4809 12.8127 15.735 12.2962L20.5969 17.1562C20.3858 17.7014 20.0962 18.2127 19.7372 18.6741L14.8041 13.7437ZM2.99999 8.99999C2.99999 7.81331 3.35189 6.65327 4.01118 5.66657C4.67047 4.67988 5.60754 3.91084 6.70389 3.45672C7.80025 3.00259 9.00665 2.88377 10.1705 3.11528C11.3344 3.34679 12.4035 3.91824 13.2426 4.75735C14.0818 5.59647 14.6532 6.66557 14.8847 7.82945C15.1162 8.99334 14.9974 10.1997 14.5433 11.2961C14.0891 12.3925 13.3201 13.3295 12.3334 13.9888C11.3467 14.6481 10.1867 15 8.99999 15C7.40923 14.9983 5.88411 14.3656 4.75927 13.2407C3.63443 12.1159 3.00173 10.5908 2.99999 8.99999ZM9.18749 16.5C9.70865 16.4873 10.2271 16.4204 10.7344 16.3003L15.4219 20.9878C15.2822 20.9981 15.1406 21.0047 14.9991 21.0047C13.6671 21.008 12.3722 20.5666 11.3195 19.7506C10.2667 18.9346 9.51646 17.7907 9.18749 16.5Z" fill="white"/>
</svg>