<svg width="176" height="40" viewBox="0 0 176 40" fill="none" xmlns="http://www.w3.org/2000/svg">
<mask id="mask0_807_11749" style="mask-type:luminance" maskUnits="userSpaceOnUse" x="0" y="0" width="40" height="40">
<path d="M40 0H0V40H40V0Z" fill="white"/>
</mask>
<g mask="url(#mask0_807_11749)">
<path d="M20 0L37.3205 10V30L20 40L2.6795 30V10L20 0Z" fill="#37262C"/>
<mask id="mask1_807_11749" style="mask-type:luminance" maskUnits="userSpaceOnUse" x="8" y="4" width="24" height="32">
<path d="M31.8831 4.24133H8.117V35.7588H31.8831V4.24133Z" fill="white"/>
</mask>
<g mask="url(#mask1_807_11749)">
<path d="M29.2421 12.9607C30.1212 12.0035 30.9908 11.0579 31.8603 10.1115C31.8679 10.1128 31.8755 10.1148 31.8838 10.116C31.5675 13.4895 31.2513 16.8638 30.9337 20.2558C27.2906 16.8688 23.6591 13.4921 20.0173 10.1064C18.1445 12.1424 16.269 14.1816 14.3854 16.2297C14.417 16.2641 14.4545 16.3112 14.4982 16.3521C15.061 16.8739 15.6256 17.3939 16.1885 17.9159C17.1443 18.8043 18.0987 19.6938 19.0546 20.5826C20.0236 21.4837 20.9938 22.3841 21.963 23.2852C22.0675 23.3828 22.1677 23.4846 22.2704 23.5841C22.3198 23.6318 22.3192 23.665 22.2666 23.7205C22.0086 23.99 21.7569 24.2659 21.5034 24.5407C20.8863 25.2104 20.2695 25.8807 19.6535 26.5518C19.6198 26.5881 19.5919 26.6302 19.5565 26.6753C19.5483 26.6709 19.5311 26.6652 19.5191 26.6544C18.749 25.9394 17.979 25.2237 17.2101 24.5081C16.6328 23.9709 16.0573 23.4311 15.4792 22.8947C14.2903 21.7902 13.1 20.6872 11.9116 19.5828C10.9514 18.6913 9.99253 17.7986 9.03362 16.9052C8.89607 16.7771 8.76298 16.6439 8.62798 16.5133C8.59377 16.4802 8.57856 16.4514 8.62098 16.4075C8.83143 16.1877 9.03932 15.9652 9.24591 15.7416C9.6769 15.2745 10.1066 14.8068 10.5369 14.339C11.1498 13.6724 11.7614 13.0046 12.3743 12.3381C12.7831 11.8939 13.1938 11.451 13.6026 11.0069C14.2548 10.2976 14.9063 9.58708 15.5585 8.87782C16.0262 8.36931 16.4953 7.86144 16.963 7.35292C17.8053 6.43656 18.6463 5.51957 19.4881 4.60322C19.5812 4.50189 19.6744 4.40057 19.7663 4.29798C19.8335 4.22405 19.8423 4.22342 19.9171 4.29288C20.6879 5.00722 21.4585 5.72157 22.2286 6.43656C23.3358 7.4651 24.4423 8.49486 25.549 9.52396C26.2645 10.1886 26.9814 10.8527 27.6956 11.5179C28.1931 11.9812 28.6888 12.4477 29.185 12.9122C29.2054 12.9313 29.2275 12.9492 29.2414 12.9613L29.2421 12.9607Z" fill="white"/>
<path d="M8.11713 29.8959C8.43531 26.5001 8.75091 23.1241 9.06718 19.7441C9.07545 19.7491 9.09066 19.7556 9.10266 19.7664C9.56152 20.1864 10.021 20.605 10.4773 21.0275C11.2101 21.7055 11.9402 22.3855 12.6709 23.0648C13.4289 23.7695 14.1857 24.4756 14.9437 25.1804C15.954 26.119 16.9655 27.0565 17.9745 27.9963C18.6198 28.5972 19.261 29.2013 19.9045 29.8042C19.9234 29.8221 19.938 29.8475 19.9596 29.8603C19.9742 29.8686 20.0072 29.8693 20.016 29.859C20.1326 29.7296 20.2436 29.5945 20.3614 29.4664C21.0237 28.7444 21.6866 28.0232 22.3502 27.3024C22.9041 26.7001 23.46 26.0999 24.014 25.4983C24.5273 24.9414 25.0394 24.3839 25.5522 23.8262C25.6345 23.737 25.6308 23.7363 25.5396 23.6529C25.1263 23.2731 24.7149 22.8914 24.3036 22.5096C23.32 21.5965 22.3364 20.6833 21.3538 19.7696C20.2879 18.7779 19.2218 17.7864 18.1564 16.7943C17.998 16.6464 17.8415 16.496 17.6754 16.3386C18.5322 15.4063 19.3879 14.4753 20.2511 13.5361C23.9 16.9287 27.5582 20.3309 31.2209 23.7363C27.5302 27.7491 23.8536 31.7466 20.1636 35.7586C17.0371 32.8522 13.9043 29.9406 10.7632 27.0208C9.8848 27.9754 9.00444 28.9318 8.11779 29.8959H8.11713Z" fill="#D6BDAF"/>
</g>
</g>
<path d="M58.4142 23.4446C58.4142 23.1015 58.3292 22.7623 58.159 22.427C57.9889 22.0916 57.66 21.7836 57.1726 21.503C56.6929 21.2222 55.9851 20.9844 55.0492 20.7895C54.3528 20.6335 53.73 20.4582 53.1807 20.2631C52.6392 20.0683 52.1828 19.8342 51.8116 19.5614C51.4402 19.2884 51.1579 18.961 50.9643 18.5789C50.771 18.1968 50.6742 17.7445 50.6742 17.2221C50.6742 16.7542 50.7748 16.3137 50.976 15.9004C51.1848 15.4794 51.4789 15.1129 51.858 14.801C52.2447 14.4813 52.7088 14.2317 53.2503 14.0524C53.7998 13.8731 54.4147 13.7834 55.0956 13.7834C56.0626 13.7834 56.8902 13.951 57.5789 14.2863C58.275 14.6138 58.805 15.0622 59.1685 15.6314C59.5399 16.2006 59.7257 16.844 59.7257 17.5613H58.3446C58.3446 17.1246 58.2169 16.7115 57.9617 16.3215C57.7141 15.9316 57.3467 15.6119 56.8593 15.3624C56.3796 15.1129 55.7917 14.9881 55.0956 14.9881C54.376 14.9881 53.792 15.0973 53.3433 15.3156C52.8946 15.5339 52.5659 15.8107 52.3569 16.146C52.1558 16.4814 52.0553 16.8284 52.0553 17.1869C52.0553 17.4677 52.0977 17.7251 52.1828 17.959C52.2756 18.185 52.4382 18.3957 52.6702 18.5905C52.9101 18.7856 53.2503 18.9688 53.6913 19.1403C54.1323 19.3118 54.7048 19.4795 55.4088 19.6432C56.4223 19.8694 57.2501 20.1462 57.8921 20.4738C58.5419 20.7933 59.0216 21.1911 59.3311 21.6667C59.6404 22.1346 59.7953 22.7038 59.7953 23.3743C59.7953 23.8967 59.6868 24.3764 59.4703 24.8131C59.2537 25.242 58.9403 25.6123 58.5304 25.9241C58.1281 26.2361 57.6407 26.4779 57.0683 26.6494C56.5036 26.8208 55.8691 26.9066 55.1652 26.9066C54.1053 26.9066 53.2079 26.7313 52.4729 26.3804C51.7458 26.0216 51.1926 25.5537 50.8136 24.9768C50.4423 24.392 50.2565 23.772 50.2565 23.1171H51.6375C51.6839 23.772 51.8889 24.2906 52.2524 24.6726C52.616 25.0469 53.061 25.3121 53.587 25.468C54.1208 25.6239 54.6468 25.702 55.1652 25.702C55.8768 25.702 56.4724 25.5967 56.9521 25.3861C57.4317 25.1756 57.7954 24.8988 58.043 24.5557C58.2905 24.2127 58.4142 23.8422 58.4142 23.4446ZM66.4213 23.7137L69.4499 14.0173H70.4246L69.8444 16.6255L66.6765 26.6727H65.7017L66.4213 23.7137ZM63.2765 14.0173L65.9339 23.772L66.5024 26.6727H65.4929L61.8491 14.0173H63.2765ZM74.196 23.737L76.7837 14.0173H78.211L74.5673 26.6727H73.5694L74.196 23.737ZM70.6219 14.0173L73.6043 23.6317L74.3585 26.6727H73.3838L70.1462 16.6139L69.6007 14.0173H70.6219ZM88.5156 24.4036V17.877C88.5156 17.2767 88.3918 16.7582 88.1442 16.3215C87.8967 15.8848 87.5331 15.5495 87.0534 15.3156C86.5738 15.0817 85.9821 14.9647 85.278 14.9647C84.6282 14.9647 84.048 15.0817 83.5375 15.3156C83.0346 15.5417 82.6361 15.8497 82.3422 16.2396C82.0559 16.6217 81.9127 17.0466 81.9127 17.5145L80.5204 17.5029C80.5204 17.0272 80.6364 16.5672 80.8684 16.1227C81.1006 15.6782 81.4293 15.2805 81.8548 14.9296C82.2803 14.5787 82.787 14.3019 83.3749 14.0992C83.9705 13.8887 84.6243 13.7834 85.3361 13.7834C86.2335 13.7834 87.0225 13.9354 87.7034 14.2395C88.3918 14.5436 88.9294 14.9998 89.3162 15.608C89.7031 16.2162 89.8964 16.9805 89.8964 17.9004V24.0176C89.8964 24.4543 89.9275 24.9066 89.9894 25.3745C90.059 25.8423 90.1556 26.2283 90.2795 26.5324V26.6727H88.8056C88.7128 26.392 88.6393 26.0412 88.5852 25.6201C88.5388 25.1912 88.5156 24.7857 88.5156 24.4036ZM88.8405 19.304L88.8637 20.38H86.1368C85.4249 20.38 84.7868 20.4464 84.2219 20.5789C83.665 20.7038 83.193 20.8909 82.8064 21.1403C82.4195 21.3821 82.1217 21.6745 81.9127 22.0177C81.7117 22.3606 81.6111 22.7505 81.6111 23.1872C81.6111 23.6395 81.7232 24.0528 81.9476 24.4271C82.1796 24.8013 82.5046 25.1015 82.9224 25.3277C83.3479 25.546 83.8507 25.6551 84.4309 25.6551C85.2044 25.6551 85.8853 25.511 86.4732 25.2224C87.0689 24.934 87.5602 24.5557 87.9471 24.0878C88.3337 23.6199 88.5929 23.1093 88.7245 22.5557L89.3279 23.3627C89.2274 23.7526 89.0416 24.1541 88.7709 24.5674C88.5078 24.973 88.1636 25.3549 87.7381 25.7136C87.3126 26.0646 86.8097 26.353 86.2295 26.5792C85.6571 26.7975 85.0073 26.9066 84.28 26.9066C83.4599 26.9066 82.7445 26.7507 82.1332 26.4389C81.5298 26.1269 81.0579 25.702 80.7175 25.1638C80.385 24.618 80.2186 24.0021 80.2186 23.3159C80.2186 22.6922 80.3501 22.1346 80.6132 21.6433C80.8761 21.1443 81.2552 20.7232 81.7503 20.38C82.2532 20.0293 82.8566 19.7641 83.5607 19.5848C84.2723 19.3975 85.0692 19.304 85.951 19.304H88.8405ZM94.9907 16.4502V31.5385H93.5981V14.0173H94.8979L94.9907 16.4502ZM103.717 20.2281V20.4738C103.717 21.4171 103.609 22.2827 103.392 23.0703C103.176 23.8578 102.862 24.5401 102.452 25.1171C102.05 25.6864 101.551 26.1269 100.955 26.4389C100.36 26.7507 99.6826 26.9066 98.9246 26.9066C98.1741 26.9066 97.5049 26.7897 96.917 26.5558C96.3291 26.3218 95.8223 25.9904 95.397 25.5615C94.9792 25.1249 94.6427 24.618 94.3873 24.041C94.1398 23.4562 93.9657 22.8169 93.865 22.1228V18.8829C93.9812 18.1189 94.1708 17.4248 94.4337 16.801C94.6968 16.1772 95.0333 15.6392 95.4434 15.1869C95.861 14.7347 96.3563 14.3877 96.9287 14.146C97.5011 13.9042 98.1549 13.7834 98.8897 13.7834C99.6557 13.7834 100.336 13.9354 100.932 14.2395C101.535 14.5358 102.042 14.9686 102.452 15.5378C102.87 16.0993 103.183 16.7776 103.392 17.573C103.609 18.3605 103.717 19.2456 103.717 20.2281ZM102.325 20.4738V20.2281C102.325 19.4873 102.247 18.8012 102.093 18.1694C101.945 17.5379 101.717 16.9883 101.408 16.5204C101.106 16.0447 100.719 15.6743 100.247 15.4092C99.7832 15.1441 99.2302 15.0115 98.5881 15.0115C97.9227 15.0115 97.3542 15.1246 96.8823 15.3507C96.4181 15.569 96.0313 15.8614 95.7217 16.2279C95.4124 16.5865 95.1687 16.9805 94.9907 17.4092C94.8128 17.8381 94.6814 18.2592 94.5961 18.6725V22.4036C94.7432 22.9962 94.9792 23.546 95.304 24.0528C95.629 24.5519 96.0622 24.9534 96.6037 25.2576C97.153 25.5537 97.8222 25.702 98.6113 25.702C99.2456 25.702 99.7949 25.5693 100.259 25.3043C100.723 25.0391 101.106 24.6688 101.408 24.1931C101.717 23.7175 101.945 23.1638 102.093 22.5323C102.247 21.9006 102.325 21.2144 102.325 20.4738Z" fill="#37262C"/>
<path d="M106.676 25.819C106.676 25.546 106.761 25.3159 106.931 25.1288C107.109 24.934 107.349 24.8365 107.651 24.8365C107.96 24.8365 108.204 24.93 108.382 25.1171C108.56 25.3043 108.649 25.5382 108.649 25.819C108.649 26.084 108.56 26.3102 108.382 26.4973C108.204 26.6845 107.96 26.7781 107.651 26.7781C107.349 26.7781 107.109 26.6845 106.931 26.4973C106.761 26.3102 106.676 26.084 106.676 25.819ZM117.12 25.702C117.708 25.702 118.257 25.5927 118.768 25.3745C119.286 25.1482 119.712 24.8169 120.044 24.3802C120.385 23.9359 120.578 23.3939 120.624 22.7545H121.947C121.909 23.5576 121.665 24.2751 121.216 24.9066C120.775 25.5304 120.195 26.0216 119.476 26.3804C118.764 26.7313 117.979 26.9066 117.12 26.9066C116.246 26.9066 115.472 26.7469 114.799 26.4271C114.134 26.1074 113.577 25.6629 113.128 25.0937C112.679 24.5167 112.339 23.8462 112.107 23.0819C111.883 22.3101 111.77 21.4797 111.77 20.5907V20.0994C111.77 19.2105 111.883 18.3839 112.107 17.6198C112.339 16.8478 112.679 16.1772 113.128 15.608C113.577 15.031 114.134 14.5826 114.799 14.2629C115.464 13.9432 116.234 13.7834 117.108 13.7834C118.006 13.7834 118.81 13.9666 119.522 14.3331C120.241 14.6996 120.814 15.2181 121.239 15.8887C121.673 16.5594 121.909 17.3546 121.947 18.2747H120.624C120.586 17.5964 120.408 17.0116 120.09 16.5204C119.773 16.0291 119.356 15.6509 118.837 15.3858C118.319 15.1207 117.743 14.9881 117.108 14.9881C116.396 14.9881 115.789 15.1285 115.286 15.4092C114.784 15.6821 114.374 16.0603 114.056 16.5438C113.747 17.0194 113.519 17.5652 113.372 18.1812C113.225 18.7894 113.151 19.4287 113.151 20.0994V20.5907C113.151 21.269 113.221 21.9161 113.36 22.5323C113.507 23.1405 113.735 23.6825 114.045 24.1579C114.362 24.6336 114.772 25.0119 115.275 25.2925C115.785 25.5655 116.4 25.702 117.12 25.702ZM123.978 20.5439V20.1578C123.978 19.2379 124.109 18.3879 124.373 17.608C124.636 16.8284 125.011 16.1538 125.498 15.5846C125.993 15.0154 126.585 14.5748 127.273 14.2629C127.962 13.9432 128.728 13.7834 129.571 13.7834C130.422 13.7834 131.192 13.9432 131.88 14.2629C132.569 14.5748 133.161 15.0154 133.656 15.5846C134.151 16.1538 134.53 16.8284 134.793 17.608C135.056 18.3879 135.188 19.2379 135.188 20.1578V20.5439C135.188 21.4641 135.056 22.3139 134.793 23.0937C134.53 23.8656 134.151 24.5363 133.656 25.1055C133.168 25.6747 132.581 26.1191 131.892 26.4389C131.203 26.7507 130.438 26.9066 129.594 26.9066C128.743 26.9066 127.974 26.7507 127.285 26.4389C126.597 26.1191 126.005 25.6747 125.51 25.1055C125.015 24.5363 124.636 23.8656 124.373 23.0937C124.109 22.3139 123.978 21.4641 123.978 20.5439ZM125.359 20.1578V20.5439C125.359 21.2378 125.452 21.8968 125.637 22.5205C125.823 23.1365 126.094 23.6863 126.45 24.1697C126.806 24.6454 127.246 25.0197 127.773 25.2925C128.299 25.5655 128.906 25.702 129.594 25.702C130.275 25.702 130.875 25.5655 131.393 25.2925C131.919 25.0197 132.36 24.6454 132.716 24.1697C133.072 23.6863 133.339 23.1365 133.517 22.5205C133.702 21.8968 133.795 21.2378 133.795 20.5439V20.1578C133.795 19.4717 133.702 18.8206 133.517 18.2046C133.339 17.5886 133.068 17.0388 132.704 16.5554C132.349 16.072 131.908 15.6899 131.381 15.4092C130.855 15.1285 130.252 14.9881 129.571 14.9881C128.89 14.9881 128.287 15.1285 127.761 15.4092C127.243 15.6899 126.802 16.072 126.438 16.5554C126.082 17.0388 125.811 17.5886 125.626 18.2046C125.448 18.8206 125.359 19.4717 125.359 20.1578ZM140.444 26.6727H139.063V12.45C139.063 11.5845 139.21 10.8554 139.504 10.2628C139.806 9.67017 140.232 9.22181 140.781 8.9177C141.338 8.6136 141.999 8.46155 142.765 8.46155C143.005 8.46155 143.252 8.47714 143.508 8.50833C143.763 8.53172 144.011 8.58242 144.25 8.66039L144.146 9.84172C143.953 9.78714 143.755 9.75205 143.554 9.73646C143.361 9.71305 143.133 9.70136 142.87 9.70136C142.367 9.70136 141.934 9.81053 141.57 10.0288C141.206 10.2394 140.928 10.5474 140.734 10.9529C140.541 11.3583 140.444 11.8574 140.444 12.45V26.6727ZM143.438 14.0173V15.1635H136.986V14.0173H143.438ZM148.312 26.6727H146.931V12.45C146.931 11.5845 147.078 10.8554 147.372 10.2628C147.674 9.67017 148.099 9.22181 148.649 8.9177C149.206 8.6136 149.867 8.46155 150.633 8.46155C150.873 8.46155 151.12 8.47714 151.376 8.50833C151.631 8.53172 151.878 8.58242 152.118 8.66039L152.014 9.84172C151.82 9.78714 151.623 9.75205 151.422 9.73646C151.228 9.71305 151 9.70136 150.737 9.70136C150.234 9.70136 149.801 9.81053 149.438 10.0288C149.074 10.2394 148.795 10.5474 148.602 10.9529C148.409 11.3583 148.312 11.8574 148.312 12.45V26.6727ZM151.306 14.0173V15.1635H144.854V14.0173H151.306ZM158.373 26.9066C157.553 26.9066 156.799 26.7547 156.11 26.4505C155.429 26.1463 154.834 25.7176 154.323 25.1638C153.82 24.6102 153.429 23.9553 153.151 23.199C152.88 22.4348 152.745 21.6004 152.745 20.696V20.193C152.745 19.2183 152.888 18.3371 153.174 17.5497C153.46 16.762 153.855 16.0876 154.358 15.5261C154.861 14.9647 155.433 14.5359 156.075 14.2395C156.725 13.9354 157.406 13.7834 158.118 13.7834C158.914 13.7834 159.622 13.9276 160.241 14.2161C160.86 14.4969 161.378 14.8984 161.796 15.4209C162.222 15.9355 162.543 16.5476 162.759 17.2573C162.976 17.959 163.084 18.7348 163.084 19.5848V20.4386H153.58V19.2456H161.703V19.0818C161.688 18.3723 161.545 17.7095 161.274 17.0934C161.011 16.4696 160.616 15.9628 160.09 15.5729C159.564 15.1831 158.907 14.9881 158.118 14.9881C157.53 14.9881 156.988 15.1129 156.493 15.3624C156.005 15.6119 155.584 15.9706 155.228 16.4385C154.88 16.8985 154.609 17.4483 154.416 18.0877C154.23 18.7192 154.137 19.4209 154.137 20.193V20.696C154.137 21.3977 154.238 22.0526 154.439 22.6608C154.648 23.2614 154.942 23.7916 155.321 24.2517C155.708 24.7117 156.164 25.0703 156.69 25.3277C157.216 25.5849 157.797 25.7136 158.431 25.7136C159.173 25.7136 159.831 25.5771 160.404 25.3043C160.976 25.0235 161.491 24.583 161.947 23.9827L162.817 24.661C162.546 25.0665 162.206 25.4408 161.796 25.7838C161.394 26.1269 160.91 26.3997 160.345 26.6026C159.781 26.8053 159.123 26.9066 158.373 26.9066ZM170.673 26.9066C169.853 26.9066 169.099 26.7547 168.41 26.4505C167.73 26.1463 167.134 25.7176 166.623 25.1638C166.12 24.6102 165.73 23.9553 165.451 23.199C165.181 22.4348 165.045 21.6004 165.045 20.696V20.193C165.045 19.2183 165.188 18.3371 165.475 17.5497C165.761 16.762 166.155 16.0876 166.658 15.5261C167.161 14.9647 167.733 14.5359 168.376 14.2395C169.025 13.9354 169.706 13.7834 170.418 13.7834C171.215 13.7834 171.923 13.9276 172.541 14.2161C173.16 14.4969 173.679 14.8984 174.097 15.4209C174.522 15.9355 174.843 16.5476 175.06 17.2573C175.276 17.959 175.385 18.7348 175.385 19.5848V20.4386H165.881V19.2456H174.004V19.0818C173.988 18.3723 173.845 17.7095 173.574 17.0934C173.311 16.4696 172.917 15.9628 172.391 15.5729C171.865 15.1831 171.207 14.9881 170.418 14.9881C169.83 14.9881 169.288 15.1129 168.793 15.3624C168.306 15.6119 167.884 15.9706 167.528 16.4385C167.18 16.8985 166.91 17.4483 166.716 18.0877C166.53 18.7192 166.438 19.4209 166.438 20.193V20.696C166.438 21.3977 166.538 22.0526 166.739 22.6608C166.948 23.2614 167.242 23.7916 167.621 24.2517C168.008 24.7117 168.465 25.0703 168.991 25.3277C169.517 25.5849 170.097 25.7136 170.731 25.7136C171.474 25.7136 172.132 25.5771 172.704 25.3043C173.276 25.0235 173.791 24.583 174.247 23.9827L175.118 24.661C174.847 25.0665 174.506 25.4408 174.097 25.7838C173.694 26.1269 173.211 26.3997 172.646 26.6026C172.081 26.8053 171.424 26.9066 170.673 26.9066Z" fill="#37262C" fill-opacity="0.5"/>
</svg>
