<svg width="222" height="222" viewBox="0 0 222 222" fill="none" xmlns="http://www.w3.org/2000/svg">
<g clip-path="url(#clip0_21_117)">
<path d="M111 0L207.129 55.5V166.5L111 222L14.8712 166.5V55.5L111 0Z" fill="#37262C"/>
<mask id="mask0_21_117" style="mask-type:luminance" maskUnits="userSpaceOnUse" x="45" y="23" width="132" height="176">
<path d="M176.951 23.5393H45.0493V198.461H176.951V23.5393Z" fill="white"/>
</mask>
<g mask="url(#mask0_21_117)">
<path d="M162.293 71.9321C167.172 66.6199 171.998 61.3714 176.824 56.1193C176.866 56.1262 176.908 56.1372 176.954 56.1441C175.199 74.8672 173.444 93.5943 171.681 112.42C151.462 93.6223 131.307 74.8814 111.095 56.0909C100.701 67.3906 90.2922 78.7081 79.8379 90.0752C80.0136 90.2659 80.2214 90.5277 80.4641 90.7542C83.5876 93.6507 86.7215 96.5367 89.8454 99.4333C95.1498 104.364 100.447 109.301 105.752 114.234C111.13 119.235 116.515 124.232 121.894 129.233C122.474 129.775 123.03 130.34 123.6 130.892C123.874 131.157 123.871 131.341 123.579 131.649C122.147 133.145 120.75 134.676 119.343 136.201C115.918 139.918 112.495 143.638 109.076 147.363C108.889 147.564 108.734 147.798 108.538 148.048C108.492 148.024 108.397 147.992 108.33 147.932C104.056 143.964 99.7826 139.992 95.5155 136.02C92.3113 133.039 89.1173 130.043 85.909 127.066C79.3103 120.936 72.7043 114.814 66.1088 108.685C60.7796 103.737 55.4577 98.7823 50.1358 93.824C49.3724 93.113 48.6337 92.3739 47.8845 91.6491C47.6946 91.4652 47.6102 91.3057 47.8456 91.0618C49.0136 89.8418 50.1674 88.6072 51.314 87.3661C53.706 84.7736 56.0908 82.1778 58.4792 79.5819C61.8807 75.8822 65.2752 72.176 68.6766 68.4767C70.9453 66.0115 73.225 63.5533 75.4937 61.0886C79.1131 57.1522 82.7292 53.2086 86.349 49.2722C88.9448 46.45 91.5479 43.6313 94.1437 40.809C98.8187 35.7232 103.486 30.6339 108.158 25.5482C108.675 24.9858 109.192 24.4235 109.702 23.8541C110.075 23.4438 110.124 23.4403 110.539 23.8258C114.817 27.7904 119.094 31.755 123.368 35.7232C129.513 41.4316 135.654 47.1468 141.796 52.8583C145.767 56.5471 149.746 60.2326 153.71 63.9246C156.471 66.4961 159.222 69.085 161.976 71.663C162.089 71.7693 162.212 71.8683 162.289 71.9353L162.293 71.9321Z" fill="white"/>
<path d="M45.0493 165.923C46.8152 147.076 48.5668 128.339 50.3221 109.58C50.368 109.608 50.4524 109.644 50.519 109.704C53.0657 112.035 55.616 114.358 58.1485 116.703C62.2152 120.466 66.2672 124.24 70.3228 128.01C74.5299 131.921 78.73 135.84 82.937 139.752C88.5439 144.961 94.158 150.164 99.7579 155.38C103.339 158.715 106.898 162.068 110.469 165.414C110.574 165.513 110.655 165.654 110.775 165.725C110.856 165.771 111.039 165.775 111.088 165.718C111.735 165 112.351 164.25 113.005 163.539C116.681 159.532 120.36 155.529 124.043 151.529C127.117 148.186 130.202 144.855 133.277 141.516C136.126 138.425 138.968 135.331 141.814 132.236C142.271 131.741 142.25 131.737 141.744 131.274C139.45 129.166 137.167 127.048 134.884 124.929C129.425 119.861 123.966 114.793 118.513 109.722C112.597 104.218 106.68 98.7153 100.767 93.2088C99.8882 92.3881 99.0193 91.5533 98.0976 90.6799C102.853 85.5057 107.602 80.3384 112.393 75.1257C132.644 93.9547 152.947 112.837 173.275 131.737C152.792 154.008 132.387 176.194 111.907 198.461C94.5553 182.33 77.1683 166.171 59.735 149.966C54.8599 155.264 49.9739 160.572 45.053 165.923H45.0493Z" fill="#D6BDAF"/>
</g>
</g>
<defs>
<clipPath id="clip0_21_117">
<rect width="222" height="222" fill="white"/>
</clipPath>
</defs>
</svg>
