<svg xmlns="http://www.w3.org/2000/svg" width="16" height="16" viewBox="0 0 16 16" fill="none">
    <path d="M7.64622 11.3538L2.64622 6.35378C2.59976 6.30733 2.56291 6.25218 2.53777 6.19148C2.51263 6.13079 2.49969 6.06573 2.49969 6.00003C2.49969 5.93434 2.51263 5.86928 2.53777 5.80859C2.56291 5.74789 2.59976 5.69274 2.64622 5.64628C2.69267 5.59983 2.74782 5.56298 2.80852 5.53784C2.86921 5.5127 2.93427 5.49976 2.99997 5.49976C3.06566 5.49976 3.13072 5.5127 3.19141 5.53784C3.25211 5.56298 3.30726 5.59983 3.35372 5.64628L7.99997 10.2932L12.6462 5.64628C12.74 5.55246 12.8673 5.49976 13 5.49976C13.1326 5.49976 13.2599 5.55246 13.3537 5.64628C13.4475 5.7401 13.5002 5.86735 13.5002 6.00003C13.5002 6.13272 13.4475 6.25996 13.3537 6.35378L8.35372 11.3538C8.30728 11.4003 8.25214 11.4372 8.19144 11.4623C8.13074 11.4875 8.06567 11.5004 7.99997 11.5004C7.93426 11.5004 7.86919 11.4875 7.8085 11.4623C7.7478 11.4372 7.69265 11.4003 7.64622 11.3538Z" fill="white"/>
</svg>