<svg xmlns="http://www.w3.org/2000/svg" width="16" height="16" viewBox="0 0 16 16" fill="none">
    <path d="M4.64622 7.64625L9.64622 2.64625C9.69267 2.59979 9.74782 2.56294 9.80852 2.5378C9.86922 2.51266 9.93427 2.49972 9.99997 2.49972C10.0657 2.49972 10.1307 2.51266 10.1914 2.5378C10.2521 2.56294 10.3073 2.59979 10.3537 2.64625C10.4002 2.6927 10.437 2.74785 10.4622 2.80855C10.4873 2.86924 10.5002 2.9343 10.5002 3C10.5002 3.06569 10.4873 3.13075 10.4622 3.19144C10.437 3.25214 10.4002 3.30729 10.3537 3.35375L5.70684 8L10.3537 12.6462C10.4475 12.7401 10.5002 12.8673 10.5002 13C10.5002 13.1327 10.4475 13.2599 10.3537 13.3537C10.2599 13.4476 10.1326 13.5003 9.99997 13.5003C9.86728 13.5003 9.74004 13.4476 9.64622 13.3537L4.64622 8.35375C4.59973 8.30731 4.56285 8.25217 4.53769 8.19147C4.51252 8.13077 4.49957 8.0657 4.49957 8C4.49957 7.93429 4.51252 7.86922 4.53769 7.80853C4.56285 7.74783 4.59973 7.69268 4.64622 7.64625Z" fill="white"/>
</svg>