<svg width="20" height="20" viewBox="0 0 20 20" fill="none" xmlns="http://www.w3.org/2000/svg">
<g id="Up graph">
<path id="Vector" fill-rule="evenodd" clip-rule="evenodd" d="M14.0557 2H6.94521C3.98721 2 2 3.89863 2 6.72421V14.2758C2 14.4968 2.034 14.7017 2.05726 14.9119L4.94458 10.9035C5.15753 10.6101 5.56284 10.5358 5.86347 10.7389L8.49489 12.5033L11.2775 8.34279L9.67237 8.66132C9.30553 8.7311 8.95479 8.49847 8.88321 8.13432C8.81074 7.77105 9.04605 7.41763 9.41021 7.34605L12.6044 6.71079C12.6903 6.69379 12.7789 6.69379 12.8666 6.71079C12.9525 6.72779 13.0357 6.76089 13.1099 6.811C13.1851 6.8611 13.2477 6.92463 13.2961 6.99889C13.3292 7.04811 13.3453 7.10537 13.3632 7.16084C13.3721 7.18768 13.39 7.21005 13.3954 7.23779L14.0279 10.4329C14.1004 10.7962 13.8633 11.1496 13.5001 11.2212C13.4562 11.2292 13.4124 11.2337 13.3685 11.2337C13.0554 11.2337 12.7744 11.0127 12.7118 10.6933L12.3933 9.08721L9.23663 13.8078C9.13821 13.9555 8.98432 14.0593 8.80984 14.0933C8.63805 14.1282 8.45463 14.0915 8.30521 13.9922L5.65411 12.2143L2.53595 16.5431C3.309 18.0614 4.88105 19 6.94521 19H14.0557C17.0137 19 19 17.1014 19 14.2758V6.72421C19 3.89863 17.0137 2 14.0557 2Z" fill="#007AFF"/>
</g>
</svg>
