<svg xmlns="http://www.w3.org/2000/svg" width="20" height="20" viewBox="0 0 20 20" fill="none">
    <g opacity="0.8">
        <path d="M16.0672 15.1829C16.1252 15.241 16.1713 15.3099 16.2027 15.3858C16.2342 15.4617 16.2503 15.543 16.2503 15.6251C16.2503 15.7072 16.2342 15.7885 16.2027 15.8644C16.1713 15.9403 16.1252 16.0092 16.0672 16.0673C16.0091 16.1254 15.9402 16.1714 15.8643 16.2028C15.7884 16.2343 15.7071 16.2505 15.625 16.2505C15.5429 16.2505 15.4615 16.2343 15.3857 16.2028C15.3098 16.1714 15.2409 16.1254 15.1828 16.0673L9.99998 10.8837L4.81717 16.0673C4.69989 16.1846 4.54083 16.2505 4.37498 16.2505C4.20913 16.2505 4.05007 16.1846 3.93279 16.0673C3.81552 15.95 3.74963 15.791 3.74963 15.6251C3.74963 15.4593 3.81552 15.3002 3.93279 15.1829L9.11639 10.0001L3.93279 4.81729C3.81552 4.70002 3.74963 4.54096 3.74963 4.3751C3.74963 4.20925 3.81552 4.05019 3.93279 3.93292C4.05007 3.81564 4.20913 3.74976 4.37498 3.74976C4.54083 3.74976 4.69989 3.81564 4.81717 3.93292L9.99998 9.11651L15.1828 3.93292C15.3001 3.81564 15.4591 3.74976 15.625 3.74976C15.7908 3.74976 15.9499 3.81564 16.0672 3.93292C16.1844 4.05019 16.2503 4.20925 16.2503 4.3751C16.2503 4.54096 16.1844 4.70002 16.0672 4.81729L10.8836 10.0001L16.0672 15.1829Z" fill="white"/>
    </g>
</svg>