<svg width="31" height="31" viewBox="0 0 31 31" fill="none" xmlns="http://www.w3.org/2000/svg">
<g clip-path="url(#clip0_146_14573)">
<rect width="31" height="31" rx="15.5" fill="#7698BB" fill-opacity="0.4"/>
<path d="M9.78792 17.0544L3.2445 24.6883L-0.462891 29.9963L10.5887 37.9407L27.6074 39L32.374 32.1148L33.9629 23.1112L30.7851 18.5682L24.3808 11.1586C23.8676 10.5648 22.936 10.6007 22.4699 11.2321L15.6352 20.4917L11.5187 16.9258C11.0058 16.4815 10.2295 16.5392 9.78792 17.0544Z" fill="#7698BB" fill-opacity="1"/>
<path d="M13.6675 8.83375C13.6675 10.3988 12.3988 11.6675 10.8337 11.6675C9.26871 11.6675 8 10.3988 8 8.83375C8 7.26871 9.26871 6 10.8337 6C12.3988 6 13.6675 7.26871 13.6675 8.83375Z" fill="#7698BB" fill-opacity="1"/>
</g>
<defs>
<clipPath id="clip0_146_14573">
<rect width="31" height="31" rx="15.5" fill="white"/>
</clipPath>
</defs>
</svg>
