<svg width="42" height="42" viewBox="0 0 42 42" fill="none" xmlns="http://www.w3.org/2000/svg">
<mask id="mask0_4023_17320" style="mask-type:alpha" maskUnits="userSpaceOnUse" x="0" y="0" width="42" height="42">
<path d="M37.6223 4.38834C33.6599 0.441163 27.9624 0 21 0C14.0288 0 8.32273 0.446249 4.36193 4.40409C0.401707 8.36028 0 14.0572 0 21.0204C0 27.9847 0.401707 33.6834 4.36357 37.641C8.32412 41.5994 14.0296 42 21 42C27.9705 42 33.675 41.5994 37.6355 37.641C41.5971 33.6826 42 27.9847 42 21.0204C42 14.0482 41.5928 8.34519 37.6223 4.38834Z" fill="#3D96FE"/>
</mask>
<g mask="url(#mask0_4023_17320)">
<rect width="42" height="42" fill="#30A9FE"/>
</g>
<path d="M26.2653 33.2571C26.6629 33.3657 26.6106 33.9367 26.1996 33.9713C22.5408 34.2771 15.4786 33.9594 12.4217 27.6326C12.0728 29.1196 12.3682 30.6628 12.7646 31.856C12.8947 32.2478 12.3658 32.5141 12.1129 32.1857C9.9254 29.3465 6.68978 23.4856 10.5224 16.9402C8.97818 17.4048 7.72576 18.3675 6.86487 19.2072C6.57304 19.4914 6.09153 19.1797 6.25568 18.8094C7.5993 15.7792 11.1328 10.2264 19.0036 10.1619C18.0662 9.3031 16.9657 8.79547 15.9845 8.49448C15.5771 8.37026 15.6562 7.785 16.0829 7.77903C19.4098 7.73006 25.0797 8.58167 29.383 14.076C29.7271 12.6104 29.445 11.0899 29.0559 9.90269C28.927 9.50854 29.4583 9.24218 29.7088 9.57423C31.8136 12.3835 34.7939 18.0749 31.005 24.5438C32.7548 24.0183 34.22 22.9242 35.1526 22.0857C35.4432 21.8241 35.8931 22.1251 35.7509 22.4858C34.5957 25.4002 31.1449 31.5013 22.5238 31.3221C23.6559 32.3577 25.0882 32.9358 26.2653 33.2571ZM20.8519 17.3224C18.8383 17.3224 17.204 18.9277 17.204 20.9056C17.204 22.8836 18.8383 24.4889 20.8519 24.4889C22.8655 24.4889 24.4997 22.8836 24.4997 20.9056C24.4997 18.9277 22.8655 17.3224 20.8519 17.3224Z" fill="white"/>
</svg>
