<svg xmlns="http://www.w3.org/2000/svg" width="86" height="86" viewBox="0 0 86 86" fill="none">
    <path d="M43 8.0625C36.09 8.0625 29.3352 10.1115 23.5898 13.9505C17.8443 17.7895 13.3663 23.246 10.722 29.63C8.07764 36.014 7.38576 43.0388 8.73383 49.816C10.0819 56.5932 13.4094 62.8184 18.2955 67.7045C23.1816 72.5906 29.4068 75.9181 36.184 77.2662C42.9613 78.6143 49.986 77.9224 56.37 75.278C62.754 72.6337 68.2105 68.1557 72.0495 62.4102C75.8885 56.6648 77.9375 49.91 77.9375 43C77.9277 33.737 74.2437 24.8562 67.6938 18.3063C61.1438 11.7563 52.263 8.07228 43 8.0625ZM55.6514 51.8486C55.9011 52.0983 56.0992 52.3947 56.2343 52.721C56.3695 53.0472 56.439 53.3969 56.439 53.75C56.439 54.1031 56.3695 54.4528 56.2343 54.779C56.0992 55.1053 55.9011 55.4017 55.6514 55.6514C55.4017 55.9011 55.1053 56.0992 54.779 56.2343C54.4528 56.3694 54.1031 56.439 53.75 56.439C53.3969 56.439 53.0472 56.3694 52.721 56.2343C52.3947 56.0992 52.0983 55.9011 51.8486 55.6514L43 46.7995L34.1514 55.6514C33.9017 55.9011 33.6053 56.0992 33.279 56.2343C32.9528 56.3694 32.6031 56.439 32.25 56.439C31.8969 56.439 31.5472 56.3694 31.221 56.2343C30.8947 56.0992 30.5983 55.9011 30.3486 55.6514C30.0989 55.4017 29.9008 55.1053 29.7657 54.779C29.6306 54.4528 29.561 54.1031 29.561 53.75C29.561 53.3969 29.6306 53.0472 29.7657 52.721C29.9008 52.3947 30.0989 52.0983 30.3486 51.8486L39.2006 43L30.3486 34.1514C29.8443 33.6471 29.561 32.9632 29.561 32.25C29.561 31.5368 29.8443 30.8529 30.3486 30.3486C30.8529 29.8443 31.5368 29.561 32.25 29.561C32.9632 29.561 33.6471 29.8443 34.1514 30.3486L43 39.2005L51.8486 30.3486C52.0983 30.0989 52.3947 29.9008 52.721 29.7657C53.0472 29.6306 53.3969 29.561 53.75 29.561C54.1031 29.561 54.4528 29.6306 54.779 29.7657C55.1053 29.9008 55.4017 30.0989 55.6514 30.3486C55.9011 30.5983 56.0992 30.8947 56.2343 31.221C56.3695 31.5472 56.439 31.8969 56.439 32.25C56.439 32.6031 56.3695 32.9528 56.2343 33.279C56.0992 33.6053 55.9011 33.9017 55.6514 34.1514L46.7995 43L55.6514 51.8486Z" fill="#FFCF55"/>
</svg>