<svg xmlns="http://www.w3.org/2000/svg" width="20" height="20" viewBox="0 0 20 20" fill="none">
    <path d="M13.75 16.1906C14.1811 16.0208 14.599 15.8189 15 15.5867V18.75C15 18.9158 14.9341 19.0748 14.8169 19.192C14.6997 19.3092 14.5407 19.375 14.375 19.375C14.2092 19.375 14.0503 19.3092 13.933 19.192C13.8158 19.0748 13.75 18.9158 13.75 18.75V16.1906ZM14.6687 9.28205L10.2937 6.94846C10.1478 6.8739 9.97836 6.85967 9.822 6.90882C9.66564 6.95798 9.53485 7.06659 9.4578 7.21126C9.38075 7.35593 9.36362 7.52507 9.41009 7.68225C9.45656 7.83943 9.56291 7.97207 9.70624 8.05158L13.3594 10L14.6875 9.29221L14.6687 9.28205ZM19.6687 6.94846L10.2937 1.94846C10.2033 1.90031 10.1024 1.87512 9.99999 1.87512C9.89754 1.87512 9.79666 1.90031 9.70624 1.94846L0.331238 6.94846C0.231241 7.00175 0.147613 7.08122 0.0893003 7.17838C0.0309873 7.27553 0.000183105 7.38671 0.000183105 7.50002C0.000183105 7.61333 0.0309873 7.72451 0.0893003 7.82166C0.147613 7.91882 0.231241 7.99829 0.331238 8.05158L2.49999 9.20861V12.9914C2.49934 13.2984 2.61232 13.5948 2.81718 13.8235C3.84061 14.9633 6.13358 16.875 9.99999 16.875C11.282 16.8856 12.5544 16.6534 13.75 16.1906V10.2086L13.3594 10L9.99999 11.7914L3.42421 8.28127L1.95311 7.50002L9.99999 3.20861L18.0469 7.50002L16.5797 8.28127H16.575L14.6875 9.29221C14.7825 9.34707 14.8614 9.42599 14.9163 9.52103C14.9711 9.61607 15 9.72388 15 9.83361V15.5867C15.815 15.1163 16.5515 14.5213 17.1828 13.8235C17.3877 13.5948 17.5006 13.2984 17.5 12.9914V9.20861L19.6687 8.05158C19.7687 7.99829 19.8524 7.91882 19.9107 7.82166C19.969 7.72451 19.9998 7.61333 19.9998 7.50002C19.9998 7.38671 19.969 7.27553 19.9107 7.17838C19.8524 7.08122 19.7687 7.00175 19.6687 6.94846Z" fill="url(#paint0_linear_3204_3036)"/>
    <defs>
        <linearGradient id="paint0_linear_3204_3036" x1="0.000183105" y1="10.6251" x2="19.9998" y2="10.6251" gradientUnits="userSpaceOnUse">
            <stop stop-color="#E04A29"/>
            <stop offset="1" stop-color="#FD754A"/>
        </linearGradient>
    </defs>
</svg>