<svg xmlns="http://www.w3.org/2000/svg" width="20" height="20" viewBox="0 0 20 20" fill="none">
    <path d="M16.875 5.62511H14.1344C14.1648 5.59933 14.1961 5.57433 14.2258 5.54699C14.4631 5.33619 14.6543 5.0787 14.7875 4.79062C14.9207 4.50255 14.9931 4.19008 15 3.87277C15.0103 3.52564 14.9495 3.18008 14.8213 2.85729C14.6932 2.53451 14.5005 2.24131 14.255 1.99571C14.0094 1.75011 13.7163 1.55728 13.3936 1.42907C13.0708 1.30085 12.7253 1.23996 12.3781 1.25011C12.0607 1.25695 11.7481 1.32924 11.4598 1.46246C11.1716 1.59568 10.914 1.78696 10.7031 2.02433C10.4113 2.36253 10.1741 2.74421 10 3.15558C9.82592 2.74421 9.58869 2.36253 9.29688 2.02433C9.08599 1.78696 8.82837 1.59568 8.54015 1.46246C8.25193 1.32924 7.93932 1.25695 7.62187 1.25011C7.27474 1.23996 6.9292 1.30085 6.60645 1.42907C6.2837 1.55728 5.99057 1.75011 5.74504 1.99571C5.49951 2.24131 5.30677 2.53451 5.17865 2.85729C5.05053 3.18008 4.98974 3.52564 5 3.87277C5.00694 4.19008 5.07929 4.50255 5.2125 4.79062C5.34572 5.0787 5.53695 5.33619 5.77422 5.54699C5.80391 5.57277 5.83516 5.59777 5.86563 5.62511H3.125C2.79348 5.62511 2.47554 5.75681 2.24112 5.99123C2.0067 6.22565 1.875 6.54359 1.875 6.87511V9.37511C1.875 9.70663 2.0067 10.0246 2.24112 10.259C2.47554 10.4934 2.79348 10.6251 3.125 10.6251V15.6251C3.125 15.9566 3.2567 16.2746 3.49112 16.509C3.72554 16.7434 4.04348 16.8751 4.375 16.8751H9.0625C9.14538 16.8751 9.22487 16.8422 9.28347 16.7836C9.34208 16.725 9.375 16.6455 9.375 16.5626V9.37511H3.125V6.87511H9.375V9.37511H10.625V6.87511H16.875V9.37511H10.625V16.5626C10.625 16.6455 10.6579 16.725 10.7165 16.7836C10.7751 16.8422 10.8546 16.8751 10.9375 16.8751H15.625C15.9565 16.8751 16.2745 16.7434 16.5089 16.509C16.7433 16.2746 16.875 15.9566 16.875 15.6251V10.6251C17.2065 10.6251 17.5245 10.4934 17.7589 10.259C17.9933 10.0246 18.125 9.70663 18.125 9.37511V6.87511C18.125 6.54359 17.9933 6.22565 17.7589 5.99123C17.5245 5.75681 17.2065 5.62511 16.875 5.62511ZM6.60234 4.60949C6.49306 4.51053 6.40542 4.39005 6.34492 4.2556C6.28442 4.12116 6.25237 3.97566 6.25078 3.82824C6.24683 3.65551 6.27739 3.48372 6.34068 3.32295C6.40396 3.16218 6.4987 3.01566 6.61933 2.89197C6.73997 2.76828 6.88408 2.66991 7.04321 2.60262C7.20235 2.53533 7.37332 2.50048 7.54609 2.50011H7.58438C7.7318 2.5017 7.87729 2.53376 8.01174 2.59425C8.14618 2.65475 8.26667 2.7424 8.36563 2.85168C9.02109 3.5923 9.25234 4.82043 9.33359 5.5798C8.57109 5.49933 7.34375 5.26808 6.60234 4.60949ZM13.3992 4.60949C12.6578 5.26574 11.4273 5.49699 10.6648 5.57824C10.7578 4.75715 11.0156 3.5548 11.6406 2.85246C11.7396 2.74318 11.8601 2.65554 11.9945 2.59504C12.129 2.53454 12.2745 2.50249 12.4219 2.5009H12.4602C12.6329 2.50198 12.8038 2.53753 12.9626 2.60548C13.1215 2.67343 13.2652 2.77241 13.3854 2.89661C13.5055 3.02081 13.5996 3.16774 13.6622 3.32879C13.7248 3.48984 13.7547 3.66176 13.75 3.83449C13.7475 3.98091 13.7149 4.12525 13.6543 4.25856C13.5937 4.39187 13.5063 4.51131 13.3977 4.60949H13.3992Z" fill="url(#paint0_linear_2345_5086)"/>
    <defs>
        <linearGradient id="paint0_linear_2345_5086" x1="1.875" y1="9.06207" x2="18.125" y2="9.06207" gradientUnits="userSpaceOnUse">
            <stop stop-color="#295CE0"/>
            <stop offset="1" stop-color="#4A7CFD"/>
        </linearGradient>
    </defs>
</svg>