<svg width="16" height="16" viewBox="0 0 16 16" fill="none" xmlns="http://www.w3.org/2000/svg">
<path d="M8 0.6875C6.55373 0.6875 5.13993 1.11637 3.9374 1.91988C2.73486 2.72339 1.7976 3.86544 1.24413 5.20163C0.690668 6.53781 0.545857 8.00811 0.828011 9.4266C1.11017 10.8451 1.80661 12.148 2.82928 13.1707C3.85196 14.1934 5.15492 14.8898 6.57341 15.172C7.99189 15.4541 9.46219 15.3093 10.7984 14.7559C12.1346 14.2024 13.2766 13.2651 14.0801 12.0626C14.8836 10.8601 15.3125 9.44628 15.3125 8C15.3105 6.06123 14.5394 4.20246 13.1685 2.83154C11.7975 1.46063 9.93877 0.689547 8 0.6875ZM8 14.1875C6.77623 14.1875 5.57994 13.8246 4.56241 13.1447C3.54488 12.4648 2.75182 11.4985 2.2835 10.3679C1.81518 9.23724 1.69265 7.99314 1.93139 6.79288C2.17014 5.59262 2.75944 4.49011 3.62478 3.62478C4.49012 2.75944 5.59262 2.17014 6.79288 1.93139C7.99314 1.69264 9.23724 1.81518 10.3679 2.2835C11.4985 2.75181 12.4648 3.54488 13.1447 4.56241C13.8246 5.57994 14.1875 6.77623 14.1875 8C14.1856 9.64046 13.5331 11.2132 12.3732 12.3732C11.2132 13.5331 9.64046 14.1856 8 14.1875ZM7.4375 8.5625V4.625C7.4375 4.47582 7.49677 4.33274 7.60226 4.22725C7.70775 4.12176 7.85082 4.0625 8 4.0625C8.14919 4.0625 8.29226 4.12176 8.39775 4.22725C8.50324 4.33274 8.5625 4.47582 8.5625 4.625V8.5625C8.5625 8.71168 8.50324 8.85476 8.39775 8.96025C8.29226 9.06574 8.14919 9.125 8 9.125C7.85082 9.125 7.70775 9.06574 7.60226 8.96025C7.49677 8.85476 7.4375 8.71168 7.4375 8.5625ZM8.84375 11.0938C8.84375 11.2606 8.79427 11.4238 8.70156 11.5625C8.60884 11.7013 8.47707 11.8094 8.32289 11.8733C8.16872 11.9371 7.99907 11.9538 7.8354 11.9213C7.67172 11.8887 7.52138 11.8084 7.40338 11.6904C7.28538 11.5724 7.20502 11.422 7.17247 11.2584C7.13991 11.0947 7.15662 10.925 7.22048 10.7709C7.28434 10.6167 7.39249 10.4849 7.53124 10.3922C7.66999 10.2995 7.83313 10.25 8 10.25C8.22378 10.25 8.43839 10.3389 8.59662 10.4971C8.75486 10.6554 8.84375 10.87 8.84375 11.0938Z" fill="#FF5449"/>
</svg>
