<svg xmlns="http://www.w3.org/2000/svg" width="86" height="86" viewBox="0 0 86 86" fill="none">
    <path d="M8.00002 43C8.00002 23.67 23.67 8 43 8C62.33 8 78 23.67 78 43C78 62.33 62.33 78 43 78C23.67 78 8.00002 62.33 8.00002 43Z" fill="white"/>
    <path d="M43 8C36.0777 8 29.3108 10.0527 23.5551 13.8986C17.7993 17.7444 13.3133 23.2107 10.6642 29.6061C8.01516 36.0015 7.32205 43.0388 8.67253 49.8282C10.023 56.6175 13.3564 62.8539 18.2513 67.7487C23.1461 72.6436 29.3825 75.977 36.1718 77.3275C42.9612 78.6779 49.9985 77.9848 56.3939 75.3358C62.7893 72.6867 68.2556 68.2007 72.1014 62.4449C75.9473 56.6892 78 49.9223 78 43C77.9902 33.7204 74.2996 24.8237 67.7379 18.2621C61.1763 11.7004 52.2796 8.0098 43 8ZM58.3663 36.8279L39.5202 55.674C39.2702 55.9243 38.9732 56.1229 38.6464 56.2584C38.3195 56.3939 37.9692 56.4636 37.6154 56.4636C37.2616 56.4636 36.9112 56.3939 36.5844 56.2584C36.2576 56.1229 35.9606 55.9243 35.7106 55.674L27.6337 47.5971C27.1285 47.0919 26.8447 46.4067 26.8447 45.6923C26.8447 44.9779 27.1285 44.2927 27.6337 43.7875C28.1388 43.2823 28.824 42.9985 29.5385 42.9985C30.2529 42.9985 30.9381 43.2823 31.4433 43.7875L37.6154 49.963L54.5567 33.0183C54.8069 32.7681 55.1038 32.5697 55.4307 32.4343C55.7575 32.2989 56.1078 32.2293 56.4615 32.2293C56.8153 32.2293 57.1656 32.2989 57.4924 32.4343C57.8192 32.5697 58.1162 32.7681 58.3663 33.0183C58.6165 33.2684 58.8149 33.5654 58.9503 33.8922C59.0857 34.219 59.1553 34.5693 59.1553 34.9231C59.1553 35.2768 59.0857 35.6271 58.9503 35.9539C58.8149 36.2808 58.6165 36.5777 58.3663 36.8279Z" fill="#295CE0"/>
</svg>