<svg xmlns="http://www.w3.org/2000/svg" width="30" height="30" viewBox="0 0 30 30" fill="none">
    <path fill-rule="evenodd" clip-rule="evenodd" d="M16.7395 16.7756L12.0991 12.1353L3.39247 20.8419C3.28901 20.9454 3.25508 21.0999 3.30579 21.2367C3.35697 21.3739 3.48277 21.469 3.62825 21.4813C4.39811 21.5402 5.43662 21.6219 5.43662 21.6219L7.79225 21.0927L7.25799 23.433C7.25799 23.433 7.33716 24.4731 7.39504 25.244C7.40688 25.389 7.5014 25.5163 7.63965 25.5665C7.77687 25.6176 7.93144 25.5837 8.03491 25.4802C10.0633 23.4519 16.7395 16.7756 16.7395 16.7756Z" fill="url(#paint0_linear_97_6553)"/>
    <path fill-rule="evenodd" clip-rule="evenodd" d="M13.2683 16.7753L17.9087 12.1349L27.1911 21.4173L24.5712 21.6215L22.4194 21.2962L22.7498 23.4327C22.7498 23.4327 22.6707 24.4727 22.6128 25.2436C22.6009 25.3886 22.5064 25.5159 22.3682 25.5661C22.2309 25.6173 22.0764 25.5833 21.9729 25.4799C19.9445 23.4515 13.2683 16.7753 13.2683 16.7753Z" fill="url(#paint1_linear_97_6553)"/>
    <path fill-rule="evenodd" clip-rule="evenodd" d="M5.44347 21.6092L13.5132 13.5398L15.3297 15.3564L7.25998 23.4258L7.1481 21.7316L5.44347 21.6092Z" fill="url(#paint2_linear_97_6553)"/>
    <path fill-rule="evenodd" clip-rule="evenodd" d="M24.5789 21.6452L16.5093 13.5745L14.6928 15.3907L22.7624 23.4615L22.8743 21.7673L24.5789 21.6452Z" fill="url(#paint3_linear_97_6553)"/>
    <path fill-rule="evenodd" clip-rule="evenodd" d="M11.4283 5.72453C11.7817 5.81989 12.1547 5.66494 12.3363 5.34731C12.8755 4.52623 13.8768 3.95056 15.0015 3.95056C16.1262 3.95056 17.1275 4.52622 17.666 5.348C17.8483 5.66493 18.2213 5.8192 18.5747 5.72384C19.5367 5.524 20.6516 5.8248 21.4467 6.62064C22.2425 7.41577 22.5433 8.53064 22.3428 9.49265C22.2474 9.84605 22.4024 10.2191 22.72 10.4007C23.5411 10.9399 24.1168 11.9412 24.1168 13.0658C24.1168 14.1905 23.5411 15.1918 22.7193 15.7303C22.4024 15.9126 22.2481 16.2856 22.3435 16.639C22.5433 17.601 22.2425 18.7159 21.4467 19.511C20.6516 20.3069 19.5367 20.6077 18.5747 20.4071C18.2213 20.3118 17.8483 20.4667 17.6667 20.7844C17.1275 21.6054 16.1262 22.1811 15.0015 22.1811C13.8768 22.1811 12.8755 21.6054 12.337 20.7837C12.1547 20.4667 11.7817 20.3125 11.4283 20.4078C10.4663 20.6077 9.35144 20.3069 8.5563 19.511C7.76047 18.7159 7.45967 17.601 7.6602 16.639C7.75556 16.2856 7.6006 15.9126 7.28297 15.731C6.46189 15.1918 5.88623 14.1905 5.88623 13.0658C5.88623 11.9412 6.46189 10.9399 7.28367 10.4014C7.6006 10.2191 7.75486 9.84605 7.6595 9.49265C7.45967 8.53064 7.76047 7.41577 8.5563 6.62064C9.35144 5.8248 10.4663 5.524 11.4283 5.72453Z" fill="url(#paint4_linear_97_6553)"/>
    <path d="M14.9996 20.1383C18.906 20.1383 22.0728 16.9715 22.0728 13.065C22.0728 9.15851 18.906 5.9917 14.9996 5.9917C11.0931 5.9917 7.92627 9.15851 7.92627 13.065C7.92627 16.9715 11.0931 20.1383 14.9996 20.1383Z" fill="url(#paint5_linear_97_6553)"/>
    <path d="M14.9998 19.0969C18.331 19.0969 21.0314 16.3965 21.0314 13.0654C21.0314 9.73423 18.331 7.03381 14.9998 7.03381C11.6687 7.03381 8.96826 9.73423 8.96826 13.0654C8.96826 16.3965 11.6687 19.0969 14.9998 19.0969Z" fill="url(#paint6_radial_97_6553)"/>
    <path fill-rule="evenodd" clip-rule="evenodd" d="M14.6571 9.55529C14.7171 9.4192 14.8514 9.33167 15 9.33167C15.1487 9.33167 15.283 9.4192 15.343 9.55529C15.6829 10.3245 16.1529 11.3887 16.1529 11.3887C16.1529 11.3887 17.31 11.5068 18.1464 11.5919C18.2945 11.6069 18.4192 11.7076 18.4653 11.8491C18.5109 11.9906 18.4689 12.1453 18.3586 12.2442C17.7321 12.8053 16.8652 13.5811 16.8652 13.5811C16.8652 13.5811 17.1104 14.7179 17.2878 15.5404C17.319 15.6855 17.2615 15.8354 17.1416 15.9223C17.0217 16.0098 16.861 16.0182 16.7327 15.9433C16.0054 15.5206 15 14.9361 15 14.9361C15 14.9361 13.9946 15.5206 13.2674 15.9433C13.1391 16.0182 12.9784 16.0098 12.8585 15.9223C12.7386 15.8354 12.681 15.6855 12.7122 15.5404C12.8897 14.7179 13.1349 13.5811 13.1349 13.5811C13.1349 13.5811 12.268 12.8053 11.6415 12.2442C11.5311 12.1453 11.4892 11.9906 11.5347 11.8491C11.5809 11.7076 11.7056 11.6069 11.8537 11.5919C12.69 11.5068 13.8471 11.3887 13.8471 11.3887C13.8471 11.3887 14.3172 10.3245 14.6571 9.55529Z" fill="url(#paint7_linear_97_6553)"/>
    <defs>
        <linearGradient id="paint0_linear_97_6553" x1="11.1099" y1="19.5812" x2="7.2587" y2="23.4323" gradientUnits="userSpaceOnUse">
            <stop stop-color="#E70002"/>
            <stop offset="1" stop-color="#FF696A"/>
        </linearGradient>
        <linearGradient id="paint1_linear_97_6553" x1="18.898" y1="19.5808" x2="22.7491" y2="23.4319" gradientUnits="userSpaceOnUse">
            <stop stop-color="#E70002"/>
            <stop offset="1" stop-color="#FF696A"/>
        </linearGradient>
        <linearGradient id="paint2_linear_97_6553" x1="11.0406" y1="17.8315" x2="6.33153" y2="22.5404" gradientUnits="userSpaceOnUse">
            <stop stop-color="#BAD3E8"/>
            <stop offset="1" stop-color="#E4EAEF"/>
        </linearGradient>
        <linearGradient id="paint3_linear_97_6553" x1="18.9818" y1="17.8666" x2="23.6909" y2="22.5763" gradientUnits="userSpaceOnUse">
            <stop stop-color="#BAD3E8"/>
            <stop offset="1" stop-color="#E4EAEF"/>
        </linearGradient>
        <linearGradient id="paint4_linear_97_6553" x1="20.4463" y1="5.75013" x2="11.385" y2="21.4956" gradientUnits="userSpaceOnUse">
            <stop stop-color="#CF8321"/>
            <stop offset="0.5" stop-color="#F9F295"/>
            <stop offset="1" stop-color="#CF8321"/>
        </linearGradient>
        <linearGradient id="paint5_linear_97_6553" x1="11.3788" y1="6.98301" x2="16.6814" y2="20.5213" gradientUnits="userSpaceOnUse">
            <stop stop-color="#CF8321"/>
            <stop offset="0.5" stop-color="#F9F295"/>
            <stop offset="1" stop-color="#CF8321"/>
        </linearGradient>
        <radialGradient id="paint6_radial_97_6553" cx="0" cy="0" r="1" gradientUnits="userSpaceOnUse" gradientTransform="translate(12.5131 7.55364) rotate(64.475) scale(13.127)">
            <stop stop-color="#FF9629"/>
            <stop offset="1" stop-color="#732300"/>
        </radialGradient>
        <linearGradient id="paint7_linear_97_6553" x1="17.98" y1="8.76672" x2="13.309" y2="16.8535" gradientUnits="userSpaceOnUse">
            <stop stop-color="#CF8321"/>
            <stop offset="0.5" stop-color="#F9F295"/>
            <stop offset="1" stop-color="#CF8321"/>
        </linearGradient>
    </defs>
</svg>