<svg xmlns="http://www.w3.org/2000/svg" width="30" height="30" viewBox="0 0 30 30" fill="none">
    <path fill-rule="evenodd" clip-rule="evenodd" d="M16.7356 16.7758L12.0952 12.1354L3.38857 20.842C3.2851 20.9455 3.25118 21.1001 3.30189 21.2368C3.35306 21.3741 3.47886 21.4691 3.62434 21.4814C4.3942 21.5403 5.43271 21.622 5.43271 21.622L7.78834 21.0928L7.25408 23.4331C7.25408 23.4331 7.33325 24.4732 7.39114 25.2441C7.40297 25.3891 7.49749 25.5164 7.63574 25.5666C7.77297 25.6178 7.92754 25.5838 8.031 25.4804C10.0594 23.452 16.7356 16.7758 16.7356 16.7758Z" fill="url(#paint0_linear_97_6571)"/>
    <path fill-rule="evenodd" clip-rule="evenodd" d="M13.2629 16.7765L17.9033 12.1361L27.1857 21.4185L24.5658 21.6228L22.4141 21.2974L22.7445 23.4339C22.7445 23.4339 22.6653 24.474 22.6074 25.2449C22.5956 25.3899 22.501 25.5172 22.3628 25.5673C22.2256 25.6185 22.071 25.5846 21.9675 25.4811C19.9392 23.4527 13.2629 16.7765 13.2629 16.7765Z" fill="url(#paint1_linear_97_6571)"/>
    <path fill-rule="evenodd" clip-rule="evenodd" d="M5.44006 21.6087L13.5098 13.5393L15.3263 15.3559L7.25656 23.4253L7.14468 21.7311L5.44006 21.6087Z" fill="url(#paint2_linear_97_6571)"/>
    <path fill-rule="evenodd" clip-rule="evenodd" d="M24.5663 21.6154L16.4966 13.546L14.6801 15.3626L22.7498 23.432L22.8617 21.7378L24.5663 21.6154Z" fill="url(#paint3_linear_97_6571)"/>
    <path fill-rule="evenodd" clip-rule="evenodd" d="M11.4229 5.72453C11.7763 5.81989 12.1494 5.66494 12.331 5.34731C12.8702 4.52623 13.8714 3.95056 14.9961 3.95056C16.1208 3.95056 17.1221 4.52622 17.6606 5.348C17.8429 5.66493 18.2159 5.8192 18.5693 5.72384C19.5313 5.524 20.6462 5.8248 21.4413 6.62064C22.2372 7.41577 22.538 8.53064 22.3374 9.49265C22.2421 9.84605 22.397 10.2191 22.7147 10.4007C23.5357 10.9399 24.1114 11.9412 24.1114 13.0658C24.1114 14.1905 23.5357 15.1918 22.714 15.7303C22.397 15.9126 22.2428 16.2856 22.3381 16.639C22.538 17.601 22.2372 18.7159 21.4413 19.511C20.6462 20.3069 19.5313 20.6077 18.5693 20.4071C18.2159 20.3118 17.8429 20.4667 17.6613 20.7844C17.1221 21.6054 16.1208 22.1811 14.9961 22.1811C13.8714 22.1811 12.8702 21.6054 12.3317 20.7837C12.1494 20.4667 11.7763 20.3125 11.4229 20.4078C10.4609 20.6077 9.34607 20.3069 8.55093 19.511C7.7551 18.7159 7.4543 17.601 7.65483 16.639C7.75019 16.2856 7.59523 15.9126 7.2776 15.731C6.45652 15.1918 5.88086 14.1905 5.88086 13.0658C5.88086 11.9412 6.45652 10.9399 7.2783 10.4014C7.59523 10.2191 7.74949 9.84605 7.65413 9.49265C7.4543 8.53064 7.7551 7.41577 8.55093 6.62064C9.34607 5.8248 10.4609 5.524 11.4229 5.72453Z" fill="url(#paint4_linear_97_6571)"/>
    <path d="M14.9956 20.1383C18.9021 20.1383 22.0689 16.9715 22.0689 13.065C22.0689 9.15851 18.9021 5.9917 14.9956 5.9917C11.0892 5.9917 7.92236 9.15851 7.92236 13.065C7.92236 16.9715 11.0892 20.1383 14.9956 20.1383Z" fill="url(#paint5_linear_97_6571)"/>
    <path d="M14.9954 19.0969C18.3266 19.0969 21.027 16.3965 21.027 13.0654C21.027 9.73423 18.3266 7.03381 14.9954 7.03381C11.6643 7.03381 8.96387 9.73423 8.96387 13.0654C8.96387 16.3965 11.6643 19.0969 14.9954 19.0969Z" fill="url(#paint6_radial_97_6571)"/>
    <path fill-rule="evenodd" clip-rule="evenodd" d="M14.6532 9.55529C14.7132 9.4192 14.8474 9.33167 14.9961 9.33167C15.1448 9.33167 15.2791 9.4192 15.3391 9.55529C15.679 10.3245 16.149 11.3887 16.149 11.3887C16.149 11.3887 17.3061 11.5068 18.1425 11.5919C18.2906 11.6069 18.4153 11.7076 18.4614 11.8491C18.507 11.9906 18.465 12.1453 18.3547 12.2442C17.7282 12.8053 16.8613 13.5811 16.8613 13.5811C16.8613 13.5811 17.1065 14.7179 17.2839 15.5404C17.3151 15.6855 17.2576 15.8354 17.1377 15.9223C17.0177 16.0098 16.8571 16.0182 16.7288 15.9433C16.0015 15.5206 14.9961 14.9361 14.9961 14.9361C14.9961 14.9361 13.9907 15.5206 13.2635 15.9433C13.1352 16.0182 12.9745 16.0098 12.8546 15.9223C12.7347 15.8354 12.6771 15.6855 12.7083 15.5404C12.8858 14.7179 13.131 13.5811 13.131 13.5811C13.131 13.5811 12.2641 12.8053 11.6376 12.2442C11.5272 12.1453 11.4853 11.9906 11.5308 11.8491C11.577 11.7076 11.7017 11.6069 11.8498 11.5919C12.6861 11.5068 13.8432 11.3887 13.8432 11.3887C13.8432 11.3887 14.3133 10.3245 14.6532 9.55529Z" fill="url(#paint7_linear_97_6571)"/>
    <defs>
        <linearGradient id="paint0_linear_97_6571" x1="11.7078" y1="17.1631" x2="6.63787" y2="22.2331" gradientUnits="userSpaceOnUse">
            <stop stop-color="#0053C0"/>
            <stop offset="1" stop-color="#318AFF"/>
        </linearGradient>
        <linearGradient id="paint1_linear_97_6571" x1="18.2907" y1="17.1639" x2="23.3607" y2="22.2338" gradientUnits="userSpaceOnUse">
            <stop stop-color="#0053C0"/>
            <stop offset="1" stop-color="#318AFF"/>
        </linearGradient>
        <linearGradient id="paint2_linear_97_6571" x1="11.0372" y1="17.831" x2="6.32811" y2="22.5399" gradientUnits="userSpaceOnUse">
            <stop stop-color="#BAD3E8"/>
            <stop offset="1" stop-color="#E4EAEF"/>
        </linearGradient>
        <linearGradient id="paint3_linear_97_6571" x1="18.9691" y1="17.8377" x2="23.6782" y2="22.5467" gradientUnits="userSpaceOnUse">
            <stop stop-color="#BAD3E8"/>
            <stop offset="1" stop-color="#E4EAEF"/>
        </linearGradient>
        <linearGradient id="paint4_linear_97_6571" x1="18.5133" y1="4.53938" x2="11.4171" y2="21.0744" gradientUnits="userSpaceOnUse">
            <stop stop-color="#636363"/>
            <stop offset="0.5" stop-color="#DFDFDF"/>
            <stop offset="1" stop-color="#636363"/>
        </linearGradient>
        <linearGradient id="paint5_linear_97_6571" x1="10.0313" y1="7.02753" x2="18.0886" y2="19.1067" gradientUnits="userSpaceOnUse">
            <stop stop-color="#636363"/>
            <stop offset="0.5" stop-color="#DFDFDF"/>
            <stop offset="1" stop-color="#636363"/>
        </linearGradient>
        <radialGradient id="paint6_radial_97_6571" cx="0" cy="0" r="1" gradientUnits="userSpaceOnUse" gradientTransform="translate(12.2995 7.08593) rotate(64.475) scale(14.2389)">
            <stop stop-color="#A1A1A1"/>
            <stop offset="1" stop-color="#454545"/>
        </radialGradient>
        <linearGradient id="paint7_linear_97_6571" x1="20.1037" y1="6.96575" x2="11.0428" y2="19.3075" gradientUnits="userSpaceOnUse">
            <stop stop-color="#636363"/>
            <stop offset="0.5" stop-color="#DFDFDF"/>
            <stop offset="1" stop-color="#636363"/>
        </linearGradient>
    </defs>
</svg>