<svg xmlns="http://www.w3.org/2000/svg" width="30" height="30" viewBox="0 0 30 30" fill="none">
    <path fill-rule="evenodd" clip-rule="evenodd" d="M16.7317 16.7755L12.0913 12.1351L3.38466 20.8418C3.28119 20.9452 3.24727 21.0998 3.29798 21.2366C3.34915 21.3738 3.47496 21.4689 3.62043 21.4812C4.3903 21.5401 5.42881 21.6218 5.42881 21.6218L7.78443 21.0926L7.25018 23.4329C7.25018 23.4329 7.32935 24.473 7.38723 25.2439C7.39907 25.3889 7.49358 25.5162 7.63184 25.5663C7.76906 25.6175 7.92363 25.5836 8.0271 25.4801C10.0555 23.4517 16.7317 16.7755 16.7317 16.7755Z" fill="url(#paint0_linear_97_6589)"/>
    <path fill-rule="evenodd" clip-rule="evenodd" d="M13.261 16.7764L17.9014 12.136L26.608 20.8426C26.7115 20.9461 26.7454 21.1007 26.6947 21.2374C26.6435 21.3747 26.5177 21.4697 26.3722 21.482C25.6024 21.5409 24.5639 21.6226 24.5639 21.6226L22.4121 21.2973L22.7425 23.4338C22.7425 23.4338 22.6633 24.4738 22.6054 25.2447C22.5936 25.3897 22.4991 25.517 22.3608 25.5672C22.2236 25.6184 22.069 25.5844 21.9656 25.481C19.9372 23.4526 13.261 16.7764 13.261 16.7764Z" fill="url(#paint1_linear_97_6589)"/>
    <path fill-rule="evenodd" clip-rule="evenodd" d="M5.43664 21.6086L13.5063 13.5392L15.3229 15.3558L7.25315 23.4252L7.14126 21.731L5.43664 21.6086Z" fill="url(#paint2_linear_97_6589)"/>
    <path fill-rule="evenodd" clip-rule="evenodd" d="M24.5672 21.6494L16.4976 13.5786L14.6811 15.3949L22.7507 23.4656L22.8626 21.7715L24.5672 21.6494Z" fill="url(#paint3_linear_97_6589)"/>
    <path fill-rule="evenodd" clip-rule="evenodd" d="M11.4195 5.72453C11.7729 5.81989 12.1459 5.66494 12.3275 5.34731C12.8668 4.52623 13.868 3.95056 14.9927 3.95056C16.1174 3.95056 17.1187 4.52622 17.6572 5.348C17.8395 5.66493 18.2125 5.8192 18.5659 5.72384C19.5279 5.524 20.6428 5.8248 21.4379 6.62064C22.2338 7.41577 22.5346 8.53064 22.334 9.49265C22.2387 9.84605 22.3936 10.2191 22.7113 10.4007C23.5323 10.9399 24.108 11.9412 24.108 13.0658C24.108 14.1905 23.5323 15.1918 22.7106 15.7303C22.3936 15.9126 22.2394 16.2856 22.3347 16.639C22.5346 17.601 22.2338 18.7159 21.4379 19.511C20.6428 20.3069 19.5279 20.6077 18.5659 20.4071C18.2125 20.3118 17.8395 20.4667 17.6579 20.7844C17.1187 21.6054 16.1174 22.1811 14.9927 22.1811C13.868 22.1811 12.8668 21.6054 12.3282 20.7837C12.1459 20.4667 11.7729 20.3125 11.4195 20.4078C10.4575 20.6077 9.34265 20.3069 8.54751 19.511C7.75168 18.7159 7.45088 17.601 7.65141 16.639C7.74677 16.2856 7.59181 15.9126 7.27418 15.731C6.4531 15.1918 5.87744 14.1905 5.87744 13.0658C5.87744 11.9412 6.4531 10.9399 7.27488 10.4014C7.59181 10.2191 7.74607 9.84605 7.65071 9.49265C7.45088 8.53064 7.75168 7.41577 8.54751 6.62064C9.34265 5.8248 10.4575 5.524 11.4195 5.72453Z" fill="url(#paint4_linear_97_6589)"/>
    <path d="M14.9922 20.1383C18.8987 20.1383 22.0655 16.9715 22.0655 13.065C22.0655 9.15851 18.8987 5.9917 14.9922 5.9917C11.0858 5.9917 7.91895 9.15851 7.91895 13.065C7.91895 16.9715 11.0858 20.1383 14.9922 20.1383Z" fill="url(#paint5_linear_97_6589)"/>
    <path d="M14.992 19.0969C18.3231 19.0969 21.0236 16.3965 21.0236 13.0654C21.0236 9.73423 18.3231 7.03381 14.992 7.03381C11.6609 7.03381 8.96045 9.73423 8.96045 13.0654C8.96045 16.3965 11.6609 19.0969 14.992 19.0969Z" fill="url(#paint6_linear_97_6589)"/>
    <path fill-rule="evenodd" clip-rule="evenodd" d="M14.6498 9.55529C14.7097 9.4192 14.844 9.33167 14.9927 9.33167C15.1414 9.33167 15.2757 9.4192 15.3356 9.55529C15.6756 10.3245 16.1456 11.3887 16.1456 11.3887C16.1456 11.3887 17.3027 11.5068 18.1391 11.5919C18.2871 11.6069 18.4118 11.7076 18.458 11.8491C18.5036 11.9906 18.4616 12.1453 18.3513 12.2442C17.7248 12.8053 16.8579 13.5811 16.8579 13.5811C16.8579 13.5811 17.1031 14.7179 17.2805 15.5404C17.3117 15.6855 17.2541 15.8354 17.1342 15.9223C17.0143 16.0098 16.8537 16.0182 16.7254 15.9433C15.9981 15.5206 14.9927 14.9361 14.9927 14.9361C14.9927 14.9361 13.9873 15.5206 13.2601 15.9433C13.1318 16.0182 12.9711 16.0098 12.8512 15.9223C12.7313 15.8354 12.6737 15.6855 12.7049 15.5404C12.8824 14.7179 13.1276 13.5811 13.1276 13.5811C13.1276 13.5811 12.2606 12.8053 11.6341 12.2442C11.5238 12.1453 11.4819 11.9906 11.5274 11.8491C11.5736 11.7076 11.6983 11.6069 11.8464 11.5919C12.6827 11.5068 13.8398 11.3887 13.8398 11.3887C13.8398 11.3887 14.3098 10.3245 14.6498 9.55529Z" fill="url(#paint7_linear_97_6589)"/>
    <defs>
        <linearGradient id="paint0_linear_97_6589" x1="13.4926" y1="15.3742" x2="6.64986" y2="22.217" gradientUnits="userSpaceOnUse">
            <stop stop-color="#5C2F00"/>
            <stop offset="1" stop-color="#A55400"/>
        </linearGradient>
        <linearGradient id="paint1_linear_97_6589" x1="16.5001" y1="15.3751" x2="23.3428" y2="22.2178" gradientUnits="userSpaceOnUse">
            <stop stop-color="#5C2F00"/>
            <stop offset="1" stop-color="#A55400"/>
        </linearGradient>
        <linearGradient id="paint2_linear_97_6589" x1="11.0338" y1="17.8309" x2="6.3247" y2="22.5398" gradientUnits="userSpaceOnUse">
            <stop stop-color="#BAD3E8"/>
            <stop offset="1" stop-color="#E4EAEF"/>
        </linearGradient>
        <linearGradient id="paint3_linear_97_6589" x1="18.9701" y1="17.8707" x2="23.6791" y2="22.5804" gradientUnits="userSpaceOnUse">
            <stop stop-color="#BAD3E8"/>
            <stop offset="1" stop-color="#E4EAEF"/>
        </linearGradient>
        <linearGradient id="paint4_linear_97_6589" x1="18.7902" y1="5.02757" x2="11.5774" y2="21.5316" gradientUnits="userSpaceOnUse">
            <stop stop-color="#965B31"/>
            <stop offset="0.5" stop-color="#F9AA57"/>
            <stop offset="1" stop-color="#965B31"/>
        </linearGradient>
        <linearGradient id="paint5_linear_97_6589" x1="9.65315" y1="6.41317" x2="19.7187" y2="20.1474" gradientUnits="userSpaceOnUse">
            <stop stop-color="#965B31"/>
            <stop offset="0.5" stop-color="#F9AA57"/>
            <stop offset="1" stop-color="#965B31"/>
        </linearGradient>
        <linearGradient id="paint6_linear_97_6589" x1="19.7506" y1="20.7001" x2="13.6554" y2="10.0408" gradientUnits="userSpaceOnUse">
            <stop stop-color="#3D1F00"/>
            <stop offset="1" stop-color="#A55400"/>
        </linearGradient>
        <linearGradient id="paint7_linear_97_6589" x1="17.719" y1="9.39052" x2="13.4201" y2="16.8711" gradientUnits="userSpaceOnUse">
            <stop stop-color="#965B31"/>
            <stop offset="0.5" stop-color="#F9AA57"/>
            <stop offset="1" stop-color="#965B31"/>
        </linearGradient>
    </defs>
</svg>